<svg width="64" height="64" fill="none" xmlns="http://www.w3.org/2000/svg"><path fill-rule="evenodd" clip-rule="evenodd" d="M45.6 34.759c0-1.143-1.074-2.07-2.4-2.07H20.8c-1.326 0-2.4.927-2.4 2.07V51.31c0 .38.359.69.8.69h25.6c.442 0 .8-.31.8-.69V34.76Zm-12.759 3.23-3.2 8.276c-.14.36.087.752.507.872.418.12.872-.075 1.012-.436l3.2-8.276c.139-.361-.087-.752-.507-.873-.418-.12-.872.075-1.012.437ZM27.866 46.1l-2.904-3.755 2.904-3.755c.244-.318.146-.746-.222-.957-.367-.211-.864-.126-1.11.19l-3.2 4.139a.612.612 0 0 0 0 .765l3.2 4.138c.245.316.742.402 1.11.19.368-.21.467-.638.222-.956v.001Zm9.6.765 3.2-4.138a.612.612 0 0 0 0-.765l-3.2-4.138c-.245-.316-.742-.402-1.11-.19-.367.21-.466.638-.221.956l2.904 3.755-2.904 3.755c-.245.317-.146.746.221.957.368.21.865.126 1.11-.19v-.002Zm5.734-25.21c0 5.333-5.014 9.655-11.2 9.655-6.186 0-11.2-4.322-11.2-9.655C20.8 16.323 25.814 12 32 12c6.186 0 11.2 4.323 11.2 9.655ZM16.8 39.213C13.81 42.466 12 46.692 12 51.31c0 .38.359.69.8.69h4.137a1.8 1.8 0 0 1-.137-.69V39.213Zm30.4 0V51.31a1.8 1.8 0 0 1-.137.69H51.2c.441 0 .8-.31.8-.69 0-4.618-1.81-8.845-4.8-12.097Z" fill="#fff"/></svg>