<svg width="41" height="40" fill="none" xmlns="http://www.w3.org/2000/svg"><path fill-rule="evenodd" clip-rule="evenodd" d="M10.332 8.022A2.585 2.585 0 0 0 8.139 9.81c-.099.296-.112.405-.112.885 0 .482.013.589.114.892.207.62.615 1.104 1.161 1.377.437.219.76.29 1.327.29.838.002 1.445-.224 1.953-.725.524-.517.746-1.151.707-2.019-.037-.822-.296-1.42-.819-1.895-.513-.466-1.32-.69-2.138-.593ZM8 23.23v8.595h5.3v-17.19H8v8.595Zm17.51-8.257a6.85 6.85 0 0 0-2.236.57c-.653.288-1.585 1.05-2.075 1.696-.13.17-.25.294-.268.275-.017-.02-.074-.528-.126-1.13-.052-.603-.107-1.11-.124-1.127-.017-.018-1.098-.028-2.402-.022l-2.372.011.008.738c.004.405.028 1.693.053 2.863.025 1.169.045 4.567.045 7.552v5.425h5.298l.013-5.024c.013-5 .014-5.025.105-5.34.13-.449.485-1.125.768-1.46.466-.555.988-.814 1.702-.845 1.447-.064 2.357.777 2.698 2.495.07.348.077.788.09 5.277l.014 4.898H32l-.014-5.509c-.016-6.032-.002-5.684-.271-6.815-.6-2.515-2.22-4.112-4.53-4.463a8.094 8.094 0 0 0-1.675-.066Z" fill="#fff"/></svg>