<svg width="2500" height="2496" viewBox="0 0 2500 2496" fill="none" xmlns="http://www.w3.org/2000/svg">
<path d="M2499.04 1182.59C2498.2 1150.52 2496.5 1117.61 2494.82 1085.54C2493.13 1052.63 2492.29 1019.72 2488.92 986.807C2483.01 942.061 2477.1 896.494 2466.97 852.607C2459.37 816.318 2446.72 781.719 2434.06 747.119C2418.03 706.601 2401.99 665.254 2381.74 626.436C2348.82 563.984 2305.78 508.281 2266.11 450.049C2239.94 412.91 2206.2 382.529 2180.88 344.56C2166.52 322.617 2145.43 304.043 2124.34 287.168C2090.58 260.166 2055.13 235.684 2019.69 212.07C1992.68 193.486 1965.67 175.771 1936.97 159.736C1914.19 147.07 1889.71 136.943 1866.07 125.976C1839.08 113.31 1812.92 98.1249 1782.54 92.2167C1774.94 90.5273 1768.18 87.998 1760.6 85.4785C1741.18 78.7109 1722.61 71.123 1703.2 65.2148C1673.67 55.9374 1644.98 44.9511 1614.59 37.3632C1585.06 29.7656 1554.68 24.6972 1524.3 20.4785C1490.54 15.4199 1455.94 13.7402 1422.18 10.3515C1400.23 7.8222 1378.29 5.29291 1357.19 4.4433C1325.13 2.76361 1292.21 2.76361 1260.14 1.914C1244.1 1.07416 1227.23 -0.615298 1211.19 0.224546C1186.72 1.07416 1162.25 3.60345 1137.75 6.98236C1114.14 9.52142 1090.51 13.7304 1067.71 17.1093C1039.87 20.4785 1012.02 22.1679 984.17 25.5468C957.998 28.9257 931.006 33.9843 904.844 38.2031C895.557 39.8925 886.269 43.2812 876.992 44.9511C856.738 49.1796 835.635 50.8691 815.371 57.6171C779.092 68.5839 742.803 81.2499 707.353 94.746C674.443 108.252 642.373 122.598 611.152 139.482C579.082 157.197 548.701 178.301 518.31 198.564C489.619 217.959 460.928 238.223 433.076 260.166C406.074 281.26 380.752 304.893 356.279 328.525C342.773 342.021 331.807 358.057 319.141 373.252C298.047 397.725 276.943 421.357 256.689 446.67C239.814 467.773 224.609 489.717 208.594 511.66C179.883 550.478 155.42 591.836 132.637 633.184C123.349 650.059 114.912 666.943 106.465 683.818C93.8085 709.141 80.3124 733.623 68.496 759.775C60.0585 777.5 53.3006 796.904 48.2421 816.318C36.3133 857.842 24.7796 899.478 13.6424 941.221C3.51549 978.35 0.976427 1017.19 0.136584 1055.16C-0.713026 1088.91 2.66588 1121.83 6.04479 1155.59C6.88463 1164.02 1.82604 1174.15 11.953 1180.9C12.7928 1180.9 11.953 1184.28 11.1034 1185.12C8.56432 1190.2 11.1034 1195.24 16.1717 1196.93C16.1717 1196.93 17.0116 1197.78 17.0116 1198.62H12.7928C10.2538 1206.22 18.701 1212.13 15.3221 1220.57C14.4823 1222.26 17.8612 1225.62 19.5409 1228.16C19.5409 1230.7 18.701 1234.07 19.5409 1236.6C20.3905 1244.2 23.7694 1251.79 23.7694 1260.23C23.7694 1266.14 28.828 1272.89 30.5077 1278.8C31.3573 1281.34 30.5077 1285.55 28.828 1287.24C23.7694 1293.14 24.6092 1298.21 32.2069 1301.59C33.8963 1302.43 36.4256 1305.8 36.4256 1307.49C36.4256 1312.57 34.7362 1317.62 33.8866 1322.69C35.576 1324.37 36.4256 1326.05 35.576 1327.74C35.576 1330.28 33.037 1332.82 33.8963 1334.5C40.6346 1348 43.1737 1363.19 44.0233 1378.38C44.0233 1381.76 45.7128 1385.14 47.3924 1389.36C48.2421 1389.36 50.7714 1389.36 52.4608 1390.2L47.3827 1405.39C51.6112 1402.85 54.9901 1402.01 59.1991 1400.32C61.7381 1411.3 64.2772 1421.43 67.6463 1430.7C68.496 1432.39 70.1854 1434.08 72.7147 1435.78C71.8651 1437.46 71.8651 1440.83 70.1756 1441.68C73.5546 1456.87 75.244 1471.22 81.1522 1485.57C82.0018 1485.57 82.8417 1484.72 83.6815 1484.72C81.1424 1469.53 79.4628 1453.5 76.9335 1438.3V1433.24C76.9335 1433.24 78.6229 1432.39 79.4628 1432.39C80.3124 1435.77 82.0018 1439.99 82.0018 1442.52C88.7401 1442.52 98.8768 1446.74 105.625 1446.74C106.474 1444.21 107.314 1440.83 108.164 1439.15C103.086 1434.08 98.8768 1426.48 93.8085 1421.43C95.4979 1428.17 93.8085 1430.7 93.8085 1433.24C90.4393 1431.55 86.2206 1429.86 81.9921 1428.17C85.371 1423.96 88.7499 1419.74 93.8085 1414.67C93.8085 1407.08 89.5897 1400.32 77.7733 1401.17C82.8417 1399.48 87.91 1396.95 93.8085 1395.26C94.6581 1397.8 95.4979 1400.32 96.3475 1402.01C103.086 1390.2 92.9686 1380.92 92.9686 1369.1C93.8085 1354.76 85.371 1340.41 82.8417 1325.21C78.6229 1301.58 79.4628 1266.14 76.9335 1242.51C76.9335 1240.82 74.3944 1239.13 72.7147 1237.44C71.8651 1238.29 67.6366 1249.26 66.8065 1250.11C69.3358 1270.36 71.8651 1290.62 73.5448 1310.87C72.7147 1310.87 71.8651 1310.87 71.8651 1311.71C68.496 1293.98 65.1171 1275.42 60.8983 1255.17C60.0585 1261.07 59.2089 1263.6 59.2089 1266.98C56.6698 1266.14 55.8397 1265.29 51.6112 1263.6C54.9901 1271.2 58.369 1276.27 60.8885 1282.18C54.9901 1279.64 48.2421 1280.49 48.2421 1280.49V1304.12C39.8046 1295.67 37.2655 1288.93 33.0467 1283.03C31.3573 1276.27 30.5077 1269.51 28.828 1262.76L31.3573 1261.91C30.5174 1258.54 28.8182 1256.01 28.8182 1253.48C27.8742 1246.74 27.0342 1239.99 26.2987 1233.22C27.1385 1232.38 30.5174 1231.53 32.2069 1229.85L25.4491 1219.73C32.2069 1220.57 36.4256 1221.41 40.6444 1221.41C40.6444 1219.73 41.4842 1218.88 40.6444 1218.04C32.2069 1210.44 38.1053 1203.68 41.4842 1196.94C43.1737 1193.55 49.0819 1192.71 50.7616 1189.34C57.5194 1176.68 68.496 1166.55 68.496 1150.52C68.496 1142.92 71.0253 1134.48 71.8651 1126.88C73.5546 1112.54 75.244 1098.19 76.0936 1083.85C77.7733 1065.29 76.0936 1046.71 80.3124 1028.99C87.0506 999.453 95.4979 969.912 104.785 940.381C111.523 919.287 119.131 899.023 127.568 877.93C140.234 845.019 152.041 812.109 168.076 780.869C190.869 735.303 217.031 691.416 242.344 646.689C258.379 618.838 275.254 592.685 292.978 565.664C309.863 539.502 326.738 512.5 346.152 488.027C373.154 453.428 402.695 421.357 435.605 392.656C469.365 362.285 501.426 331.055 537.724 303.203C584.99 266.914 634.775 234.844 687.949 206.992C730.986 184.209 775.713 166.484 820.449 149.6C849.141 138.633 880.361 133.584 909.902 124.287C943.662 113.31 977.422 108.252 1012.86 107.402C1035.65 106.562 1057.59 104.033 1080.38 101.504C1100.63 99.8144 1120.89 98.1249 1142.83 95.5956C1141.19 97.6876 1139.77 99.9499 1138.61 102.344C1129.33 115.85 1119.2 129.346 1109.92 142.851C1102.32 153.828 1093.89 165.635 1086.29 176.611C1072.78 194.336 1058.44 212.06 1045.78 230.625C1026.37 258.476 1008.64 287.168 988.389 315.019C968.135 342.021 946.191 367.344 925.098 393.506C897.246 429.795 871.084 466.924 843.232 503.213C817.91 537.822 790.908 570.732 766.435 605.332C744.492 635.713 725.078 667.783 703.984 699.014C672.754 745.43 641.533 791.006 610.303 837.412C585.831 872.777 561.075 907.945 536.035 942.91C534.346 945.449 531.816 946.289 529.287 947.969C527.598 949.658 524.209 951.348 524.209 953.047C522.539 958.945 522.539 964.863 520 969.912C513.252 982.578 506.504 995.234 498.906 1007.05C494.687 1013.8 488.779 1019.71 483.711 1026.46C482.021 1025.62 481.172 1024.78 479.492 1024.78C482.871 1016.33 497.217 1011.27 490.469 998.613C486.25 1005.36 482.021 1011.27 477.803 1018.02L467.676 1038.27C471.055 1040.81 476.953 1042.49 471.055 1047.56C468.516 1051.78 465.976 1056.84 463.457 1061.06C464.307 1061.06 464.307 1061.9 465.146 1061.9C467.676 1058.53 470.215 1056 472.744 1052.63C473.584 1052.63 474.433 1053.47 475.273 1053.47C472.734 1061.9 467.676 1069.5 463.457 1077.1C460.078 1083.85 451.641 1088.92 445.732 1093.97C446.582 1094.81 452.49 1097.35 453.33 1098.19C455.859 1094.81 456.709 1096.5 459.238 1093.13C460.928 1095.67 463.457 1091.45 464.307 1093.97C466.836 1090.6 469.365 1088.07 470.215 1085.54C473.584 1077.1 478.652 1070.34 487.09 1066.98C490.469 1065.28 492.998 1062.74 495.527 1060.21C520.849 1034.05 547.012 1008.75 569.795 980.889C605.244 937.842 637.314 893.115 671.064 849.228C685.42 830.674 702.295 812.1 717.48 794.375C719.17 795.225 720.859 795.225 721.709 796.064C720.019 813.789 718.33 832.353 717.48 850.078C714.941 881.299 713.262 912.529 710.732 944.609C709.892 957.256 710.732 969.912 709.892 982.578C709.892 985.947 707.353 988.477 707.353 991.855C707.353 1000.29 709.892 1009.58 709.892 1018.03C707.353 1049.25 703.984 1079.63 701.445 1110.85C700.605 1117.61 703.984 1124.36 705.674 1130.26C704.824 1129.42 703.984 1128.57 701.445 1126.88C701.445 1175.84 710.723 1223.96 703.135 1272.05C706.514 1271.2 708.203 1270.36 708.203 1268.67C709.043 1262.76 710.732 1256.86 710.732 1250.95C711.582 1245.89 710.732 1240.82 710.732 1234.91V1226.47C711.582 1211.28 714.951 1195.24 713.262 1180.06C711.582 1163.17 711.582 1147.15 714.951 1131.1C716.64 1124.37 714.111 1115.92 718.33 1107.48V1120.14C717.48 1168.24 719.17 1216.35 712.422 1264.45C711.582 1268.67 714.951 1276.27 705.674 1275.42C704.824 1275.42 703.984 1279.64 702.295 1282.18C698.076 1290.62 707.353 1301.58 698.916 1310.02C697.226 1311.71 700.605 1319.31 701.445 1324.37C701.445 1326.05 702.295 1327.74 701.445 1328.59C698.076 1334.5 698.076 1334.5 703.135 1335.34C703.984 1353.91 705.674 1370.79 706.514 1388.51H709.043C720.019 1356.44 713.262 1323.53 719.17 1290.62C720.019 1304.11 720.859 1317.62 720.019 1331.96C720.019 1353.91 719.17 1375.01 718.33 1396.95C718.33 1401.17 717.48 1405.39 716.641 1409.61C714.101 1421.43 713.262 1433.24 709.043 1444.21C705.674 1452.65 707.353 1465.31 707.353 1475.44V1507.5C707.353 1508.35 709.892 1510.88 709.892 1514.26C710.732 1521.86 706.514 1529.45 709.043 1537.89C709.892 1539.58 708.203 1542.11 707.353 1543.8C706.514 1546.34 705.674 1548.86 706.514 1551.39L709.043 1564.05C709.043 1564.89 709.892 1565.74 710.732 1567.42C711.582 1564.05 711.582 1561.51 711.582 1560.68C725.928 1562.36 718.32 1575.02 725.078 1581.78C721.709 1583.46 719.17 1584.32 719.17 1585.15C720.019 1588.53 721.709 1591.05 721.709 1594.43C721.709 1602.02 720.859 1608.79 720.019 1616.38C720.019 1635.78 719.17 1655.2 719.17 1673.76C719.17 1676.3 720.019 1678.84 720.019 1681.36C720.019 1683.05 719.17 1684.74 719.17 1687.27V1704.99H722.549C720.859 1707.53 719.17 1710.05 716.641 1712.58C715.801 1712.58 713.262 1712.58 713.262 1711.74V1605.4H700.605C698.916 1656.04 703.135 1701.61 693.857 1748.87C683.73 1749.72 680.351 1751.41 669.385 1751.41C643.213 1751.41 617.06 1751.41 590.898 1752.25C559.668 1752.25 529.277 1753.1 498.057 1753.1C482.871 1753.1 466.836 1754.78 451.641 1754.78C431.387 1754.78 410.293 1752.25 390.039 1752.25C358.808 1752.25 328.418 1754.79 297.207 1755.63C274.414 1756.46 251.631 1756.46 228.848 1757.31C213.652 1758.15 198.457 1759 183.271 1760.68C176.523 1761.53 170.615 1764.06 162.168 1766.59C159.629 1766.59 153.73 1765.75 148.672 1766.59C140.234 1768.28 132.637 1773.35 124.199 1775.03C111.533 1777.57 108.164 1780.94 109.844 1793.6V1802.04C108.088 1800.36 106.098 1798.94 103.935 1797.82C103.096 1797.82 102.256 1798.66 102.256 1798.66C103.096 1801.2 104.785 1802.88 105.625 1805.42C109.004 1803.73 113.223 1799.51 116.601 1799.51H128.418C126.728 1799.51 125.879 1804.57 123.34 1808.79C128.433 1806.88 133.501 1804.91 138.545 1802.88C139.385 1805.42 139.385 1808.79 139.385 1809.64C151.201 1808.79 162.168 1805.42 172.295 1807.95C205.205 1816.39 238.974 1819.77 272.724 1823.13C294.668 1824.82 315.771 1825.67 337.715 1826.51C368.935 1828.2 400.166 1829.89 431.387 1829.89C457.549 1829.89 482.871 1827.36 509.023 1827.36C545.322 1827.36 581.611 1829.04 617.9 1829.9C625.498 1829.9 633.935 1829.04 642.373 1829.04H703.984C758.838 1827.36 813.691 1826.51 868.555 1824.82C899.775 1823.98 931.836 1822.29 963.076 1821.46L1059.27 1818.92C1096.42 1818.08 1133.54 1818.08 1169.83 1817.23C1197.69 1817.23 1224.7 1816.39 1252.54 1815.55C1283.77 1814.7 1315.84 1812.17 1347.06 1810.48C1363.95 1809.64 1380.82 1807.95 1397.7 1806.26C1417.96 1804.57 1439.05 1802.04 1459.31 1801.19C1489.68 1799.51 1520.92 1798.66 1551.3 1796.97C1589.28 1794.44 1627.26 1791.06 1666.07 1790.23C1701.52 1788.54 1737.81 1789.38 1773.25 1788.54C1804.48 1787.7 1835.7 1786.01 1867.77 1785.17L1920.95 1782.63C1920.95 1782.63 1956.39 1781.79 1974.11 1780.1C2004.48 1778.41 2034.87 1775.03 2065.25 1774.19C2084.67 1773.35 2104.08 1774.19 2123.49 1773.35C2154.72 1772.5 2186.79 1770.81 2218.01 1770.81C2229.82 1770.81 2242.49 1772.5 2257.68 1773.35C2250.93 1779.26 2246.71 1782.63 2241.64 1786.85C2245.02 1787.7 2248.38 1789.38 2251.77 1791.06C2251.77 1791.91 2250.93 1792.75 2250.93 1794.44C2246.71 1794.44 2242.49 1795.29 2238.26 1795.29C2236.58 1799.51 2234.89 1801.19 2233.2 1809.65H2248.39C2242.49 1809.65 2237.42 1817.23 2231.51 1822.29C2232.36 1823.13 2233.2 1823.13 2234.04 1823.98C2224.77 1820.61 2218.86 1822.29 2215.48 1831.58C2218.01 1832.42 2219.7 1832.42 2222.22 1832.42C2221.39 1834.96 2220.55 1837.5 2219.7 1840.86C2218.86 1842.55 2218.01 1844.24 2218.01 1846.77L2215.47 1844.24C2215.47 1842.55 2215.47 1840.86 2214.64 1839.17C2209.56 1844.25 2201.97 1847.62 2206.19 1858.58C2202.82 1860.27 2198.6 1861.96 2194.37 1864.49C2195.22 1866.18 2196.91 1867.87 2197.75 1870.4C2190.17 1871.24 2182.57 1872.94 2184.26 1882.22C2187.63 1883.06 2191 1884.76 2193.54 1885.59C2189.32 1887.28 2185.1 1889.8 2180.88 1891.49C2180.03 1893.18 2179.19 1897.4 2177.5 1898.25C2165.68 1900.79 2172.44 1905 2175.81 1909.22C2173.27 1910.91 2170.75 1912.6 2168.22 1913.44C2170.75 1914.29 2172.44 1915.13 2174.13 1916.82C2171.59 1918.51 2169.9 1919.36 2168.22 1920.2C2169.9 1921.04 2172.44 1922.73 2173.28 1922.73C2169.9 1925.25 2165.68 1928.63 2160.62 1932.85C2160.62 1934.54 2160.62 1935.39 2161.46 1937.07C2158.1 1940.45 2154.72 1943.82 2151.34 1948.89C2147.97 1953.95 2146.28 1960.7 2142.06 1965.76C2124.34 1985.18 2111.67 2007.96 2088.89 2023.15C2080.45 2029.06 2072.85 2036.65 2065.25 2044.25C2050.07 2058.6 2036.56 2074.63 2020.53 2088.13C1999.43 2105.86 1977.49 2121.89 1954.7 2137.94C1926.86 2157.33 1899 2176.75 1871.15 2195.31C1855.96 2205.44 1839.08 2213.04 1823.05 2222.32C1807.01 2231.6 1791.83 2240.05 1775.78 2249.33C1765.65 2256.08 1756.38 2265.36 1745.4 2270.43C1717.55 2282.25 1688.02 2292.37 1659.33 2303.34C1656.79 2304.18 1655.11 2305.03 1652.57 2305.88C1631.47 2315.16 1611.22 2325.28 1590.12 2332.88C1570.7 2339.63 1550.46 2344.7 1530.2 2348.92C1523.45 2350.61 1515.84 2348.92 1508.26 2349.76C1493.91 2352.29 1479.55 2355.66 1465.21 2357.35C1428.09 2362.43 1390.95 2365.79 1353.82 2370.86C1331.87 2373.4 1310.77 2377.61 1288.83 2380.14C1273.64 2380.99 1257.61 2379.3 1242.41 2379.3C1231.45 2379.3 1219.63 2381.84 1208.65 2380.14C1190.94 2377.61 1173.2 2373.4 1155.49 2370.01C1151.27 2369.17 1145.36 2367.48 1141.98 2369.17C1135.23 2372.54 1129.33 2367.48 1122.58 2369.17C1118.36 2370.01 1114.14 2366.64 1109.91 2366.64C1106.54 2365.79 1102.32 2367.48 1098.1 2366.64C1088.82 2364.1 1080.38 2360.73 1070.25 2361.57C1060.13 2362.42 1050 2357.35 1039.02 2354.83C1023.84 2351.45 1009.49 2348.07 994.297 2344.7C988.389 2343.01 983.33 2340.48 977.422 2337.1C975.732 2337.94 973.193 2339.64 969.824 2339.64C955.469 2337.1 941.133 2336.26 927.627 2331.19C915.81 2326.97 904.844 2321.06 892.178 2322.75C888.808 2323.59 886.269 2321.9 882.9 2321.9C880.361 2318.54 877.822 2311.78 875.303 2311.78C858.408 2312.63 848.291 2298.28 833.945 2294.06C826.348 2291.52 820.449 2283.09 812.851 2280.56C794.287 2272.96 779.092 2256.92 757.998 2254.39C751.24 2253.54 744.492 2250.18 736.894 2247.64C739.424 2251.02 741.113 2253.54 743.633 2256.08L741.953 2257.76C719.17 2244.27 696.387 2230.76 673.594 2218.12C670.224 2217.26 667.695 2213.89 665.156 2212.2L642.373 2197C639.834 2195.31 634.775 2192.78 634.775 2193.62C629.717 2199.54 624.648 2194.47 621.279 2192.78C598.486 2176.75 572.324 2166.62 550.381 2148.9C541.103 2141.31 530.127 2136.24 523.379 2126.95C511.562 2112.61 497.207 2102.48 481.182 2094.04C468.525 2087.3 456.709 2079.7 444.892 2072.1C438.984 2067.88 433.076 2062.82 433.076 2053.54C433.076 2047.63 430.537 2041.73 422.949 2045.1C419.57 2040.03 416.201 2034.12 411.982 2032.43C401.855 2028.21 395.088 2020.62 387.5 2013.88C379.912 2007.12 374.004 1997.83 364.717 1994.46C347.842 1987.71 337.715 1973.37 327.588 1961.55C303.955 1933.69 282.851 1903.31 260.908 1873.77C259.228 1871.24 255.849 1869.55 253.32 1867.03L252.471 1867.87C256.689 1876.31 260.908 1883.91 265.137 1892.34C264.287 1893.18 262.598 1894.03 261.758 1894.88C256.68 1888.96 250.781 1883.07 245.723 1877.15C244.873 1878 244.033 1878.84 243.183 1878.84L303.955 1975.05C309.014 1982.65 313.232 1990.23 318.301 1997.83C317.342 1998.88 316.196 1999.74 314.922 2000.37C305.644 1998.68 297.207 1991.92 292.978 1984.33C285.39 1970.83 276.943 1962.39 260.068 1964.07C258.379 1958.16 256.689 1951.42 255.849 1945.52C252.471 1945.52 249.941 1945.52 244.033 1944.67C255.849 1963.23 265.976 1979.27 276.943 1997.83C272.724 1995.3 270.195 1993.61 268.506 1992.77C283.701 2008.81 294.668 2029.06 314.082 2039.19C318.301 2058.59 340.244 2067.88 345.303 2086.46C341.084 2085.61 337.715 2084.76 333.486 2083.92C326.738 2075.48 319.131 2067.04 311.553 2057.75C313.232 2063.66 315.771 2068.72 319.141 2072.95C329.267 2085.61 338.555 2098.26 350.371 2109.24C354.59 2113.46 360.498 2115.15 360.498 2122.73C362.187 2121.04 363.877 2120.21 367.236 2118.52C365.557 2121.89 364.717 2123.59 363.877 2126.11C367.246 2126.11 369.785 2126.95 372.314 2126.95C374.004 2132.03 371.465 2139.62 381.592 2137.93C382.441 2137.93 383.281 2138.77 384.131 2139.62C388.349 2150.59 395.098 2150.59 404.385 2146.37C406.074 2145.53 410.293 2146.37 411.123 2148.06C415.351 2157.33 421.26 2158.18 428.857 2151.44C428.857 2155.65 429.697 2159.87 429.697 2163.25H433.076C433.076 2161.56 432.236 2159.02 432.236 2154.8C436.455 2158.18 438.974 2159.88 440.674 2161.56C449.111 2173.38 456.709 2184.35 468.525 2193.62C484.56 2207.13 498.896 2221.47 514.092 2234.15C543.633 2258.61 576.543 2278.88 609.463 2297.43C649.971 2320.21 688.789 2344.7 730.146 2366.63C779.932 2392.8 833.105 2410.52 887.959 2423.18C908.213 2427.4 927.627 2431.62 947.881 2436.68C965.605 2441.76 983.33 2449.35 1001.04 2453.57C1028.06 2459.47 1055.91 2464.53 1082.91 2469.6C1088.82 2470.44 1094.73 2471.29 1101.46 2472.14V2473.82C1109.07 2473.82 1118.36 2470.44 1120.05 2472.97C1124.27 2479.73 1127.64 2476.35 1132.7 2475.51C1138.61 2473.82 1145.36 2473.82 1152.11 2473.82C1175.74 2474.66 1198.53 2479.73 1222.16 2478.04C1227.23 2478.04 1234.82 2473.82 1239.04 2482.26C1240.73 2481.41 1241.57 2480.57 1243.26 2479.73C1246.63 2478.88 1250.86 2478.88 1254.23 2478.04V2479.73C1252.54 2480.57 1250.86 2480.57 1247.48 2481.42C1251.7 2482.26 1254.22 2483.1 1256.76 2483.96C1255.08 2485.63 1254.22 2485.63 1252.54 2486.47C1250.86 2487.31 1248.32 2488.16 1244.95 2490.69C1275.32 2496.6 1304.02 2497.45 1329.35 2490.69V2485.63H1332.71C1332.71 2487.31 1333.56 2489 1334.4 2490.69C1373.22 2494.07 1411.2 2489 1447.49 2476.35C1450.87 2480.57 1453.4 2486.47 1458.47 2478.04C1460.16 2475.51 1464.37 2474.66 1467.74 2473.82C1475.34 2472.13 1484.63 2468.75 1491.38 2471.29C1498.97 2473.83 1501.5 2467.06 1507.41 2467.06C1517.03 2467.09 1526.64 2466.25 1536.1 2464.53C1541.17 2463.69 1546.23 2461.15 1552.14 2459.47C1552.14 2458.62 1552.14 2457.78 1551.3 2456.93C1545.39 2456.09 1538.64 2455.25 1533.57 2455.25C1543.7 2450.19 1552.99 2445.98 1562.27 2441.75C1562.27 2442.59 1563.12 2442.59 1563.12 2443.44C1560.58 2444.28 1558.9 2447.66 1555.52 2447.66H1567.33C1564.79 2447.66 1561.43 2455.25 1557.21 2460.31C1587.58 2452.71 1615.44 2445.97 1642.44 2439.22V2437.53C1639.07 2438.37 1636.53 2438.37 1634 2439.22C1633.16 2421.49 1652.56 2427.4 1659.33 2417.28C1650.88 2419.81 1642.43 2422.33 1634 2424.02V2422.33C1662.7 2409.68 1692.24 2397.02 1720.92 2384.36C1720.92 2385.21 1721.78 2385.21 1721.78 2386.04C1716.7 2389.42 1711.65 2391.95 1704.05 2396.17C1709.11 2397.02 1712.49 2397.02 1715.02 2397.86C1715.02 2400.4 1715.02 2402.08 1714.18 2402.94C1728.53 2402.08 1725.15 2389.42 1729.37 2381.83C1731.9 2382.67 1735.27 2384.37 1737.81 2383.52C1745.4 2381.83 1752.16 2379.3 1759.75 2376.78C1768.19 2374.24 1776.63 2371.7 1785.07 2368.32C1798.57 2362.41 1811.23 2354.82 1824.74 2348.07C1827.27 2347.23 1831.47 2348.07 1834.86 2348.07C1837.39 2348.07 1839.08 2346.38 1840.77 2344.7C1844.14 2342.16 1847.51 2337.1 1850.05 2337.94C1861.87 2339.63 1870.3 2335.41 1873.68 2324.44C1874.53 2324.44 1874.53 2323.59 1875.37 2323.59C1879.59 2320.22 1883.81 2316.86 1888.03 2314.32C1906.6 2304.18 1924.32 2294.06 1942.89 2283.93C1943.73 2283.09 1945.42 2283.93 1947.11 2283.93C1949.64 2283.93 1953.02 2283.93 1954.7 2283.09C1965.67 2278.02 1975.79 2272.12 1985.93 2266.21C1983.39 2265.36 1985.93 2264.52 1977.49 2263.67V2261.98C1985.93 2260.3 1988.46 2259.45 1993.53 2257.76L1991.84 2256.08C2013.78 2234.14 2041.63 2218.11 2062.72 2199.54C2066.94 2200.38 2068.63 2201.22 2071.16 2201.22C2072.01 2198.69 2072.01 2196.16 2072.01 2194.48C2075.38 2190.25 2078.75 2185.19 2082.98 2181.82C2101.53 2164.93 2121.81 2150.59 2138.68 2132.86C2163.15 2108.39 2186.79 2083.08 2208.73 2056.91C2228.98 2033.28 2249.24 2009.65 2266.11 1983.49C2289.75 1947.2 2310 1910.07 2331.09 1872.09C2346.29 1845.08 2359.79 1818.09 2374.98 1791.06C2376.67 1788.54 2380.05 1785.17 2382.58 1785.17C2405.36 1782.63 2428.15 1780.94 2450.1 1778.41C2455.16 1777.57 2461.06 1774.19 2466.13 1771.67C2463.59 1767.44 2461.9 1762.37 2459.37 1758.15C2456.01 1753.09 2450.94 1748.88 2447.56 1743.81C2444.19 1739.59 2441.66 1734.53 2439.12 1729.46C2436.58 1725.24 2434.06 1721.87 2431.52 1717.65C2426.46 1708.37 2421.4 1699.09 2417.17 1688.96C2416.34 1686.42 2414.65 1682.2 2415.49 1679.68C2430.68 1646.77 2436.58 1611.32 2450.94 1578.41C2465.28 1544.64 2469.49 1506.66 2476.26 1470.37C2482.17 1435.77 2485.54 1401.17 2489.76 1366.56C2492.29 1342.09 2495.66 1318.46 2496.51 1293.98C2501.57 1255.17 2499.88 1218.89 2499.04 1182.59V1182.59ZM377.363 2124.42C371.474 2117.69 366.406 2110.08 360.498 2103.33L363.027 2100.79C372.305 2110.93 381.601 2121.04 390.879 2132.02C385.82 2129.49 379.912 2127.8 377.373 2124.42H377.363ZM390.879 2132.02C393.408 2131.18 395.947 2131.18 398.476 2130.33C401.006 2134.55 402.695 2139.62 405.215 2144.69C393.398 2143.84 387.5 2138.77 390.879 2132.02ZM1268.57 2480.57V2478.04C1284.61 2476.35 1299.8 2474.66 1315.84 2472.98V2475.52C1300.18 2478.03 1284.41 2479.72 1268.57 2480.57V2480.57ZM1481.25 2458.62C1469.43 2461.16 1456.78 2462.84 1444.96 2464.53C1440.74 2465.38 1435.68 2469.61 1433.99 2462C1432.3 2462.84 1430.62 2462.84 1428.92 2463.69C1433.14 2476.35 1443.27 2466.23 1451.71 2471.29C1433.14 2473.83 1415.42 2475.51 1397.7 2478.04V2476.35C1402.76 2475.51 1408.67 2474.66 1413.74 2473.82V2471.29C1405.29 2470.44 1396.85 2469.6 1388.42 2469.6C1385.88 2469.6 1382.51 2472.98 1379.98 2473.82C1376.6 2474.66 1373.22 2475.51 1369 2475.51C1354.65 2476.35 1340.31 2476.35 1326.81 2477.2C1325.97 2477.2 1324.27 2476.35 1323.44 2476.35V2473.82C1379.98 2466.22 1435.68 2458.62 1492.23 2451.04C1493.07 2452.71 1493.07 2454.4 1493.91 2456.09C1488.85 2456.09 1485.47 2457.78 1481.25 2458.63V2458.62ZM1493.91 2450.19C1513.32 2447.66 1531.04 2445.97 1549.61 2443.45C1510.79 2454.4 1498.13 2456.09 1493.91 2450.19ZM758.838 746.289C785.85 709.15 813.691 672.012 840.703 634.033C849.14 623.066 855.889 611.25 864.336 600.283C866.865 596.904 870.234 595.215 874.463 591.836L873.613 590.156C876.992 585.928 880.351 582.559 882.051 579.18C886.269 572.441 888.808 564.834 892.178 557.236C893.027 555.547 895.557 553.867 895.557 553.867C907.373 559.766 907.373 547.109 911.592 542.891C919.154 534.381 926.472 525.657 933.535 516.728C938.594 509.99 943.662 504.072 947.881 496.475C948.721 493.945 946.191 489.736 945.342 486.348H942.822C945.351 484.658 947.881 482.129 950.41 480.439C951.26 480.439 951.26 480.439 952.1 479.6C957.168 472.002 962.226 464.404 967.295 457.656C977.422 444.15 988.389 430.644 1000.2 418.828C998.515 423.047 996.826 427.275 995.146 430.644C995.986 430.644 995.986 431.494 996.826 431.494C1006.95 417.988 1017.92 405.332 1028.06 391.826C1027.21 390.986 1026.37 390.137 1025.52 390.137C1021.31 394.355 1017.93 398.574 1013.7 402.793C1012.86 401.953 1012.02 401.113 1011.16 401.113C1019.62 390.137 1028.06 379.17 1036.49 366.504C1038.18 369.043 1039.87 372.412 1043.23 379.17C1046.62 370.723 1050 364.814 1052.53 358.916C1049.99 361.455 1046.62 363.975 1044.09 366.504L1041.55 363.975L1056.75 341.191C1072.78 318.398 1088.82 294.775 1104.85 271.982C1110.76 263.545 1118.36 256.797 1123.41 248.359C1139.45 216.289 1164.78 190.967 1184.18 161.426C1188.41 155.527 1194.31 150.459 1199.37 145.391C1203.59 140.332 1206.97 142.021 1210.35 146.24C1233.13 174.932 1255.92 204.473 1278.7 233.164C1295.59 254.268 1312.46 274.521 1328.5 296.455C1347.91 323.467 1366.47 350.469 1385.89 377.48C1407.83 408.701 1429.78 439.932 1450.87 472.012C1482.94 519.258 1513.32 566.523 1545.39 613.779C1569.02 648.389 1592.66 682.139 1615.44 716.748H1572.39C1532.73 715.898 1492.22 712.519 1452.56 714.209C1398.54 716.748 1343.69 722.646 1289.67 726.865C1221.31 732.773 1152.11 733.623 1083.76 733.623C1059.28 733.623 1034.8 736.992 1010.32 738.682C980.791 740.371 952.1 742.06 922.558 742.91C887.959 744.59 854.199 745.449 819.6 746.279C800.195 747.129 779.932 746.279 758.838 746.279V746.289ZM1726.84 1134.49V1142.09C1726 1142.09 1725.15 1142.93 1723.46 1142.93C1720.09 1131.11 1716.71 1118.46 1712.49 1106.64C1704.05 1082.17 1694.77 1057.7 1679.58 1035.75C1662.69 1012.12 1647.51 987.646 1630.62 963.174C1626.41 957.266 1620.5 952.197 1615.44 947.139C1597.71 927.725 1579.99 907.471 1557.21 893.135C1523.45 872.041 1488.85 854.307 1451.71 839.111C1441.58 834.893 1432.3 829.834 1422.18 823.926H1442.43L1586.75 821.396C1617.97 820.547 1648.35 820.547 1679.58 818.857C1687.18 818.857 1691.4 821.396 1695.62 828.144C1703.21 840.801 1710.8 853.457 1719.24 866.133C1720.09 867.803 1721.78 870.342 1721.78 872.871C1721.78 891.436 1721.78 910.859 1722.62 929.414C1723.47 948.828 1725.15 967.402 1726 986.807C1726 1006.21 1724.31 1026.46 1725.15 1046.72C1726 1075.43 1726.84 1104.95 1726.84 1134.49V1134.49ZM818.75 851.768C858.418 850.078 896.387 847.539 935.215 845.859C965.586 844.17 996.816 843.32 1027.2 841.641C1039.86 840.791 1051.68 839.951 1064.34 841.641C1050.83 848.389 1037.33 855.137 1025.52 863.584C1010.32 873.701 995.976 887.217 980.781 898.184C965.596 909.15 952.09 922.656 939.433 937.002C923.398 956.416 905.674 973.291 888.799 991.855C876.982 1005.36 863.476 1018.03 853.35 1032.36C838.994 1050.94 826.348 1071.19 812.842 1092.29C817.06 1012.11 822.119 932.783 818.75 851.768V851.768ZM1369.84 1663.63C1342.83 1670.38 1314.99 1677.99 1287.13 1681.36C1263.5 1684.74 1239.03 1683.9 1214.56 1683.9C1192.62 1683.9 1171.51 1683.05 1149.57 1681.36C1125.1 1678.83 1100.62 1676.29 1076.99 1665.32C1056.74 1656.04 1035.64 1647.6 1015.39 1637.47C995.137 1627.34 974.863 1615.53 959.687 1596.96C948.711 1583.46 933.515 1572.49 920.019 1560.67C922.478 1570.85 928.847 1579.64 937.744 1585.15C933.525 1590.22 927.617 1587.69 919.18 1574.18C916.641 1575.86 914.101 1576.72 912.422 1577.55C914.961 1571.64 917.49 1565.74 920.019 1560.67C916.65 1553.94 912.422 1546.33 909.053 1539.58C902.265 1528.51 895.791 1517.25 889.639 1505.82C887.949 1503.28 887.949 1500.75 886.26 1498.22C882.041 1493.15 877.822 1488.1 874.443 1483.03C867.695 1472.9 861.787 1461.93 853.35 1451.81C853.35 1454.35 854.189 1456.87 854.189 1460.24C853.35 1460.24 852.51 1461.08 852.51 1461.08L834.785 1418.05C833.935 1418.05 833.935 1418.05 833.096 1418.9L848.291 1474.59C847.441 1474.59 846.601 1475.44 845.752 1475.44C843.213 1472.06 840.693 1468.68 839.004 1464.46C837.314 1457.72 832.256 1457.72 828.027 1460.24C825.488 1461.93 823.808 1467.84 824.658 1470.37C830.566 1484.73 837.314 1499.06 844.062 1513.42C845.752 1518.48 847.441 1522.7 849.971 1527.77C850.82 1529.45 853.35 1531.13 853.35 1533.67C856.728 1540.42 859.258 1547.17 863.476 1553.08C871.074 1563.2 879.512 1573.33 887.109 1583.46C894.707 1593.58 901.455 1604.56 908.203 1614.69C909.053 1616.38 911.582 1616.38 912.422 1617.23C916.65 1629.87 930.996 1639.16 941.123 1634.1C943.652 1653.51 964.746 1660.27 973.193 1678.83C964.909 1675.45 956.743 1671.79 948.711 1667.85C947.871 1668.7 947.871 1669.54 947.031 1671.23C957.158 1676.29 967.285 1681.36 976.562 1687.27C985 1692.32 993.447 1697.39 1001.04 1703.3C1011.17 1712.58 1022.98 1717.66 1037.33 1721.03C1036.48 1718.49 1035.64 1717.65 1035.64 1717.65C1058.01 1728.03 1080.24 1738.72 1102.31 1749.72C1014.54 1751.41 920.869 1753.1 823.799 1754.78C823.799 1738.74 822.969 1723.55 822.969 1707.52C822.969 1700.78 824.658 1694.86 823.808 1688.11C821.269 1649.29 821.269 1610.47 816.221 1572.49C811.142 1531.98 811.142 1492.31 812.002 1451.81C812.842 1429.86 811.152 1407.08 810.312 1385.14C810.312 1355.6 810.312 1326.9 811.152 1297.36C811.152 1293.14 812.842 1289.77 814.531 1285.55H817.06C817.9 1287.24 817.06 1289.77 818.75 1290.63C821.279 1293.14 825.488 1297.36 827.187 1296.52C832.256 1293.14 839.844 1289.77 841.533 1284.71C845.752 1274.58 847.441 1263.61 847.441 1253.48C847.441 1245.89 850.82 1240.82 854.18 1235.75C855.879 1233.22 856.719 1230.69 858.418 1227.31C855.039 1224.79 851.66 1223.1 847.441 1219.73C850.82 1210.45 849.971 1199.46 862.637 1194.4C864.326 1193.55 864.326 1189.34 865.166 1186.81C866.006 1180.07 866.855 1172.46 867.695 1165.71C869.385 1168.25 870.224 1169.08 871.914 1170.77C872.764 1169.08 873.603 1168.24 873.603 1168.24C873.603 1164.86 872.764 1158.12 873.603 1158.12C883.73 1156.43 879.512 1145.46 884.58 1140.39C885.42 1139.55 883.73 1137.01 883.73 1135.33C883.73 1133.64 883.73 1131.1 884.58 1131.1C896.387 1128.57 894.707 1115.92 902.295 1110.01C904.834 1108.32 905.674 1105.79 909.053 1101.57C915.791 1113.39 903.975 1119.3 903.144 1127.74C917.49 1119.3 921.699 1099.04 913.271 1093.13C916.65 1090.6 920.01 1087.23 922.549 1083.86C931.826 1073.72 941.963 1064.43 950.4 1054.31C956.308 1046.71 959.678 1037.43 965.596 1029.83C968.974 1025.62 975.723 1022.24 980.781 1019.71C995.976 1011.27 1010.32 1001.98 1019.61 987.637C1021.3 985.947 1023.83 984.258 1026.35 982.578C1028.89 980.889 1033.95 980.889 1034.79 978.35C1035.64 976.67 1033.11 972.451 1031.42 969.912C1034.79 968.223 1038.17 964.853 1044.92 961.475C1042.38 966.553 1041.55 969.912 1039.86 973.291L1044.08 977.51C1051.68 971.601 1063.5 964.853 1071.08 959.785C1071.08 958.945 1066.87 955.566 1066.87 955.566C1061.81 958.105 1054.21 962.324 1046.61 965.693C1048.3 963.164 1048.3 961.475 1049.14 960.635C1060.96 953.037 1072.77 945.439 1085.43 939.541C1114.97 926.025 1144.51 912.529 1174.04 899.863C1179.11 897.334 1185.86 899.023 1191.77 899.023C1194.3 899.023 1195.99 899.023 1198.53 898.184C1212.02 893.965 1225.53 889.746 1239.03 886.367C1245.08 884.699 1251.32 883.849 1257.59 883.838C1282.92 884.678 1308.23 884.678 1333.55 886.377C1344.52 887.207 1354.65 889.746 1364.78 893.115C1377.44 897.334 1390.94 903.242 1402.75 909.15C1417.02 916.783 1430.83 925.238 1444.11 934.473C1468.58 950.508 1491.37 968.223 1515.84 982.578C1539.47 996.934 1558.03 1016.33 1573.23 1038.27C1591.79 1064.44 1612.9 1088.08 1621.34 1120.14L1633.99 1175.84C1636.52 1185.97 1642.43 1196.09 1639.9 1207.91C1635.68 1229 1632.3 1250.95 1628.94 1272.05C1627.25 1280.49 1625.56 1288.93 1626.4 1297.36C1628.09 1323.54 1617.96 1346.31 1607.83 1369.94C1604.45 1377.54 1599.39 1385.14 1595.18 1393.57C1596.02 1394.41 1601.08 1396.95 1601.91 1396.95L1609.52 1381.76C1610.36 1381.76 1610.36 1381.76 1611.21 1382.61C1606.99 1394.42 1603.61 1407.08 1599.39 1418.9C1589.27 1445.07 1579.14 1472.06 1566.48 1497.38C1559.73 1511.74 1547.91 1523.55 1539.47 1537.04C1531.04 1548.86 1524.29 1561.51 1515.84 1572.49C1508.25 1581.78 1500.65 1591.05 1490.53 1597.81C1467.73 1614.69 1444.11 1631.56 1419.63 1645.08C1404.44 1654.36 1386.72 1659.41 1369.84 1663.63V1663.63ZM920.019 1618.91L919.18 1619.75C917.49 1618.91 914.961 1618.06 913.271 1616.38L893.017 1586.01C891.328 1583.47 890.478 1580.93 891.328 1577.55C900.405 1591.67 909.975 1605.46 920.019 1618.91V1618.91ZM1444.95 1734.53C1482.93 1718.49 1514.16 1695.7 1542.85 1669.54C1547.07 1665.32 1551.29 1661.1 1556.36 1657.72C1591.8 1635.78 1617.96 1605.4 1641.59 1571.64C1668.59 1532.82 1686.32 1488.94 1708.26 1447.59C1709.95 1444.21 1711.64 1440.83 1713.33 1438.31C1711.64 1534.51 1722.61 1629.03 1735.26 1724.39C1639.9 1727.77 1542.85 1731.15 1444.95 1734.52V1734.53ZM2300.71 1709.21C2299.86 1710.9 2298.17 1712.58 2297.33 1714.27C2296.48 1712.58 2296.48 1710.05 2295.64 1706.68C2290.57 1720.18 2279.61 1713.43 2272.01 1713.43C2226.45 1714.27 2180.02 1714.27 2134.45 1714.27C2090.57 1714.27 2045.84 1714.27 2001.95 1715.12C1987.6 1715.12 1972.41 1718.49 1958.07 1719.34C1923.47 1721.03 1888.87 1721.87 1854.26 1722.71C1851.72 1722.71 1849.2 1718.49 1844.98 1715.12C1844.14 1716.81 1842.44 1719.34 1839.9 1722.71C1839.07 1721.03 1837.38 1719.34 1835.69 1716.81C1834.99 1719.11 1834.14 1721.36 1833.15 1723.55H1830.63C1828.95 1711.74 1825.56 1700.77 1825.56 1688.96C1825.56 1663.63 1828.1 1638.32 1828.95 1613C1829.79 1601.18 1828.95 1590.21 1828.95 1579.24C1832.32 1581.78 1834.85 1583.46 1838.22 1586C1839.91 1582.62 1841.6 1580.09 1843.29 1577.55C1843.29 1577.55 1841.6 1576.71 1839.91 1575.02C1841.6 1574.18 1843.29 1572.49 1843.29 1571.65C1844.14 1569.11 1845.82 1566.58 1845.82 1564.89C1845.82 1558.98 1844.14 1553.93 1843.28 1548.86C1844.14 1548.86 1844.98 1548.86 1845.82 1548.02L1850.89 1573.33H1853.42C1850.05 1567.42 1861.02 1562.36 1851.73 1555.61C1850.89 1554.77 1852.58 1549.7 1852.58 1547.17C1850.04 1542.11 1848.36 1537.04 1845.82 1530.29C1846.67 1529.45 1849.2 1528.6 1851.73 1527.76C1848.36 1526.07 1845.82 1524.38 1843.29 1523.54C1851.73 1515.95 1851.73 1511.73 1844.14 1503.28C1845.82 1502.44 1847.51 1502.44 1847.51 1501.6C1847.51 1494 1847.51 1486.41 1845.82 1478.81C1844.14 1470.37 1848.36 1460.25 1835.69 1455.19C1836.48 1457.59 1837.62 1459.87 1839.07 1461.93C1839.07 1461.93 1836.53 1462.77 1833.99 1464.47C1823.04 1454.34 1829.78 1440.84 1827.26 1425.64C1833.16 1427.33 1837.38 1429.02 1841.6 1430.7C1839.91 1424.8 1835.69 1418.05 1833.16 1410.45H1829.78V1354.76C1829.78 1355.6 1835.69 1355.6 1839.06 1356.44C1839.06 1355.6 1839.91 1354.76 1839.91 1353.91C1837.37 1350.53 1834 1347.17 1830.63 1342.94L1832.32 1341.25C1825.57 1332.81 1828.95 1321 1828.95 1318.47V1259.38C1837.38 1267.82 1824.73 1278.8 1837.38 1283.86V1275.42H1836.54C1835.69 1262.76 1835.69 1250.11 1834.85 1237.44H1833.16C1832.32 1239.13 1832.32 1239.98 1831.47 1241.66H1829.78C1831.47 1174.99 1833.16 1108.32 1834.85 1039.96C1843.29 1050.94 1852.58 1061.06 1858.49 1072.03C1877.89 1107.48 1903.21 1137.86 1926.85 1169.93C1947.1 1197.78 1965.66 1228.16 1984.23 1256.86C2007.01 1291.46 2028.95 1326.05 2051.75 1360.66C2068.7 1386.87 2086.14 1412.75 2104.07 1438.3C2120.11 1461.08 2136.98 1483.03 2153.87 1504.97C2168.21 1524.38 2183.4 1543.8 2197.74 1563.2C2214.63 1586.84 2231.5 1610.47 2248.39 1633.25C2256.83 1645.07 2266.1 1656.88 2275.39 1668.7C2280.45 1675.45 2288.05 1680.52 2293.12 1684.74C2292.27 1684.74 2291.43 1684.74 2289.74 1683.89C2292.27 1687.27 2293.96 1689.79 2295.64 1691.48C2304.92 1696.54 2305.77 1701.61 2300.71 1709.21V1709.21ZM2343.75 1498.22V1492.31C2343.75 1494 2344.59 1496.53 2343.75 1498.22ZM2372.44 1126.05C2371.6 1126.05 2366.53 1120.98 2365.69 1120.14C2364.84 1122.68 2365.69 1125.2 2364 1128.57C2363.16 1126.04 2357.26 1126.88 2357.26 1124.36C2356.41 1136.17 2362.31 1147.99 2361.47 1159.8C2364 1158.12 2374.13 1157.27 2376.66 1154.74C2377.51 1155.59 2379.19 1156.43 2380.04 1156.43C2363.16 1169.08 2367.38 1181.75 2374.96 1196.09C2376.66 1199.46 2381.73 1206.22 2376.66 1212.97C2374.97 1214.66 2377.51 1219.73 2378.35 1223.95H2380.88V1225.62L2373.29 1228.16C2371.6 1225.62 2361.47 1220.57 2361.47 1216.35V1259.38C2369.91 1261.92 2369.91 1273.74 2373.29 1279.64C2374.97 1277.11 2375.82 1275.42 2376.66 1272.9L2377.51 1273.73C2376.66 1278.81 2375.82 1283.86 2374.13 1288.93C2372.44 1296.52 2370.75 1303.28 2369.91 1310.87C2369.91 1311.71 2371.6 1313.41 2371.6 1314.24C2362.31 1335.34 2367.38 1358.97 2364 1380.92C2361.46 1396.95 2364 1413.83 2362.31 1430.7C2360.62 1445.06 2357.26 1460.24 2353.88 1474.59C2353.04 1477.13 2351.34 1477.97 2347.13 1479.67C2348.81 1469.53 2347.97 1462.77 2346.28 1453.5C2345.44 1453.5 2334.46 1447.59 2333.62 1447.59C2333.62 1459.4 2340.36 1475.44 2342.9 1488.94C2340.36 1488.1 2330.24 1482.2 2329.4 1482.2C2327.71 1492.31 2327.71 1505.83 2326.87 1516.79C2326.03 1525.22 2318.43 1532.82 2317.59 1542.11C2317.59 1547.17 2323.5 1550.55 2322.65 1558.98H2329.4C2329.4 1542.11 2337 1526.91 2337 1509.19H2339.53C2340.37 1510.88 2342.91 1512.57 2342.06 1513.42C2340.37 1522.7 2337 1532.82 2337.84 1542.11C2337.84 1547.17 2342.06 1552.24 2340.37 1558.14C2338.68 1563.2 2337.83 1568.27 2337 1575.86C2336.15 1571.64 2335.31 1569.96 2335.31 1567.42C2334.46 1567.42 2326.87 1566.58 2326.03 1566.58C2325.19 1571.64 2331.93 1576.71 2331.09 1580.94C2330.24 1581.78 2329.4 1581.78 2327.71 1582.62L2299.86 1542.11C2277.92 1510.04 2255.98 1477.97 2234.03 1445.06C2228.36 1437 2223.28 1428.54 2218.85 1419.74C2192.68 1375.01 2163.99 1331.96 2131.92 1290.62C2107.44 1259.38 2088.04 1225.62 2065.24 1192.71C2044.15 1161.49 2023.05 1131.1 2001.95 1099.88C1994.36 1089.76 1985.08 1080.47 1978.32 1069.51C1956.38 1034.9 1936.97 999.453 1915.03 964.853C1896.46 936.152 1876.2 908.31 1856.8 880.459C1849.85 870.747 1843.1 860.898 1836.54 850.918C1835.69 849.228 1834.85 847.539 1834.85 845.01C1833.16 826.455 1831.47 807.881 1830.63 790.156C1830.63 773.271 1832.32 756.396 1832.32 738.672V723.486C1832.32 719.268 1833.16 715.889 1833.16 711.67C1834 710.82 1834.85 709.141 1835.69 708.291C1811.22 708.291 1785.91 707.451 1761.43 708.291C1745.4 709.141 1736.95 702.383 1725.98 690.576C1693.92 654.277 1670.28 612.939 1642.43 574.111C1616.26 536.973 1589.27 500.684 1562.26 464.394C1540.32 434.853 1518.38 406.162 1496.44 376.621C1471.96 342.871 1448.33 309.111 1423 275.351C1392.63 234.844 1361.41 194.336 1330.18 153.828C1315.82 135.254 1299.79 117.539 1283.76 98.1249C1294.73 99.8144 1304.85 101.504 1314.99 102.344L1355.5 104.883C1385.87 107.422 1416.26 109.092 1446.64 113.31C1471.96 116.689 1497.28 121.758 1523.44 125.976C1579.14 135.254 1633.98 150.449 1687.17 168.174C1718.39 178.301 1748.77 191.807 1779.15 204.463C1847.51 232.314 1912.5 266.064 1976.63 301.514C1996.89 312.48 2008.7 330.205 2023.9 346.24C2045.84 369.033 2067.78 391.816 2088.88 415.449C2113.35 443.301 2136.14 471.992 2159.77 500.684C2180.86 526.006 2202.81 551.318 2223.91 576.641C2230.66 584.238 2235.72 593.516 2241.63 601.953C2255.14 622.207 2270.32 641.621 2282.14 663.574C2290.59 679.6 2295.64 698.164 2301.55 715.889C2309.99 742.06 2318.43 767.373 2326.87 793.535C2332.82 813.27 2337.89 833.261 2342.06 853.447C2345.44 866.953 2344.59 881.299 2348.8 894.805C2353.88 912.529 2348.8 931.934 2353.88 949.658C2354.72 951.348 2355.57 953.877 2356.41 955.566C2359.79 958.945 2362.31 962.314 2357.26 967.383C2356.41 968.223 2356.41 971.601 2357.26 974.131C2358.94 972.451 2359.79 970.762 2361.47 968.223C2361.47 969.912 2362.31 970.762 2362.31 971.601C2362.31 974.98 2361.47 978.35 2362.31 981.728C2362.31 983.418 2364 985.947 2364.84 987.637C2366.53 985.947 2368.22 985.107 2371.6 982.578C2379.19 1011.27 2380.04 1039.96 2380.04 1069.5C2380.04 1097.35 2385.1 1125.2 2373.29 1152.22C2375.82 1142.92 2369.91 1134.48 2372.44 1126.04V1126.05Z" fill="#DD3735"/>
<path d="M1835.95 1457C1836.79 1457 1837.64 1457.85 1837.64 1457.85L1836.79 1457C1836.79 1456.16 1836.79 1456.16 1835.95 1457ZM1969.29 2290.82C1960.01 2297.57 1950.72 2303.48 1938.91 2306.01C1938.07 2305.17 1938.07 2304.32 1937.22 2303.48C1946.5 2297.57 1956.63 2291.66 1965.92 2285.75C1966.76 2287.44 1968.45 2289.13 1969.29 2290.82V2290.82ZM386.904 1147.28C396.182 1135.46 405.469 1123.64 415.596 1111.84C416.436 1112.68 423.193 1114.37 424.033 1115.2C414.756 1127.02 402.09 1143.06 392.813 1155.71C391.123 1154.03 388.594 1148.12 386.904 1147.28V1147.28ZM147.227 1560.81C140.469 1546.46 133.721 1531.27 126.973 1516.92C127.813 1516.08 133.721 1513.54 134.561 1513.54C143.848 1527.05 148.066 1543.09 154.814 1557.43C154.814 1557.43 148.066 1560.81 147.227 1560.81ZM362.432 1155.71C357.363 1163.31 352.305 1171.75 347.236 1179.35C346.396 1178.51 337.109 1182.72 336.27 1181.87C341.328 1174.29 353.984 1160.78 359.053 1153.18C359.893 1154.03 360.742 1154.87 362.432 1155.71ZM1878.98 2325.42C1879.83 2325.42 1879.83 2324.57 1880.67 2324.57C1886.58 2325.42 1893.34 2326.26 1900.09 2326.26C1889.11 2333.86 1882.36 2333.02 1878.98 2325.42ZM364.111 1191.16C364.961 1188.63 366.65 1186.09 368.33 1183.56C370.02 1183.56 372.559 1182.72 372.559 1182.72C375.928 1176.82 375.928 1172.6 379.307 1167.53C378.467 1166.69 377.617 1166.69 376.777 1165.84C371.709 1169.22 366.65 1173.44 361.582 1176.82C363.272 1178.51 363.272 1179.35 363.272 1181.04C356.523 1180.2 353.984 1183.56 350.615 1192.85C349.766 1195.38 345.547 1196.22 341.328 1199.6C340.488 1201.29 339.639 1205.51 337.949 1209.73L338.799 1210.58C337.574 1211.69 336.14 1212.55 334.58 1213.11C329.512 1218.16 323.604 1222.39 318.545 1227.45C317.695 1229.98 316.855 1232.52 316.855 1235.05C322.764 1229.14 332.891 1218.16 340.488 1211.42L341.328 1212.26C344.707 1207.2 347.236 1202.13 350.615 1197.07C351.455 1197.91 351.455 1198.76 352.305 1199.6C349.766 1206.35 347.236 1213.95 344.707 1220.7C343.018 1221.54 340.488 1223.23 340.488 1222.39C337.109 1224.92 334.58 1228.29 331.201 1230.83L316.016 1240.96C307.568 1248.55 299.131 1255.3 289.854 1262.9C283.945 1272.18 278.037 1280.62 271.279 1291.59C281.406 1289.06 283.945 1293.28 283.096 1301.72C294.912 1303.41 295.752 1294.12 299.131 1287.37C299.98 1285.68 300.82 1282.3 302.51 1281.46C310.107 1274.72 318.545 1268.81 326.982 1262.05C328.672 1260.36 328.672 1256.99 328.672 1254.45C328.672 1253.61 324.453 1253.61 321.924 1252.77C329.512 1244.33 340.488 1229.98 348.086 1220.7C352.305 1218.16 356.523 1214.79 356.523 1212.26C355.674 1202.98 361.582 1200.45 368.33 1197.07C364.961 1194.54 364.111 1192 364.111 1191.16V1191.16Z" fill="#DD3735"/>
<path d="M380.996 1181.87C377.617 1187.78 374.248 1192.85 370.869 1198.76L365.801 1196.22C362.432 1215.63 350.615 1232.52 338.799 1235.89C342.178 1237.58 345.547 1239.27 348.086 1238.42C350.615 1237.58 352.305 1233.36 353.985 1230.83L376.778 1197.91L384.375 1185.25L380.996 1181.87V1181.87ZM99.9611 1552.36C104.18 1552.36 108.399 1553.21 113.467 1553.21C113.467 1549.83 117.686 1550.68 117.686 1547.3H120.215C120.215 1551.52 121.065 1554.9 121.065 1559.12H103.34C102.49 1558.27 99.1212 1553.21 99.9611 1552.36ZM93.213 1513.54C90.6837 1511.02 86.4552 1508.49 86.4552 1505.95C85.6154 1502.58 88.1447 1498.36 90.6837 1494.14C92.3634 1500.04 93.213 1505.11 94.9025 1511.02C94.0529 1511.86 93.213 1512.71 93.213 1513.54ZM114.307 1459.53C117.686 1467.98 121.065 1477.26 124.434 1485.69C123.594 1485.69 118.526 1488.23 117.686 1489.07C114.307 1480.63 110.088 1471.35 106.719 1462.91C107.559 1462.07 112.617 1459.53 114.307 1459.53ZM1992.92 2266.35C1997.14 2264.66 2002.21 2263.81 2008.96 2262.12C2001.36 2268.03 1995.45 2272.25 1990.39 2277.31C1989.54 2276.46 1988.7 2275.62 1987.86 2275.62C1989.54 2272.25 1991.23 2269.72 1992.92 2266.34V2266.35V2266.35ZM955.723 483.096C960.781 479.717 965 477.187 970.069 473.809L971.758 475.498C966.69 482.256 962.471 489.004 956.563 497.441C955.723 491.533 955.723 488.154 954.873 483.936C954.033 483.936 954.873 483.936 955.723 483.096ZM1202.99 910.127C1210.59 906.758 1218.18 903.379 1227.47 899.16C1226.62 904.219 1226.62 907.598 1226.62 910.977C1224.09 910.127 1220.71 909.287 1218.18 909.287C1213.13 910.127 1203.84 916.885 1199.62 917.725C1198.77 917.725 1202.99 910.977 1202.99 910.127V910.127ZM1835.95 1625.79C1837.64 1634.23 1853.67 1638.45 1837.64 1646.88C1840.17 1648.57 1842.7 1649.42 1845.23 1651.11C1845.23 1651.95 1844.39 1653.64 1843.55 1654.48C1841.86 1655.33 1838.48 1657.02 1836.79 1656.17C1835.95 1656.17 1834.26 1652.79 1834.26 1651.11C1834.26 1643.52 1835.11 1635.92 1835.95 1625.79Z" fill="#DD3735"/>
</svg>
