<svg width="216" height="216" fill="none" xmlns="http://www.w3.org/2000/svg"><path fill-rule="evenodd" clip-rule="evenodd" d="M107.562 33C65.778 33 32 67.146 32 109.389c0 33.767 21.643 62.35 51.668 72.466 3.753.761 5.128-1.644 5.128-3.666 0-1.771-.123-7.841-.123-14.166-21.02 4.554-25.397-9.106-25.397-9.106-3.378-8.853-8.383-11.128-8.383-11.128-6.88-4.68.5-4.68.5-4.68 7.632.506 11.637 7.841 11.637 7.841 6.754 11.635 17.638 8.347 22.017 6.324.625-4.933 2.628-8.348 4.755-10.244-16.765-1.771-34.404-8.347-34.404-37.689 0-8.347 3-15.176 7.755-20.488-.75-1.896-3.378-9.739.752-20.236 0 0 6.38-2.024 20.766 7.841a72.405 72.405 0 0 1 18.891-2.53c6.381 0 12.884.887 18.89 2.53 14.388-9.864 20.768-7.84 20.768-7.84 4.13 10.496 1.5 18.339.75 20.235 4.88 5.312 7.757 12.14 7.757 20.488 0 29.342-17.639 35.791-34.529 37.689 2.753 2.402 5.129 6.955 5.129 14.164 0 10.244-.124 18.465-.124 20.993 0 2.024 1.377 4.429 5.129 3.67C161.357 171.737 183 143.156 183 109.389 183.123 67.146 149.221 33 107.562 33Z" fill="#24292F"/></svg>