<svg width="40" height="40" viewBox="0 0 40 40" fill="none" xmlns="http://www.w3.org/2000/svg">
<path d="M31.5862 18.0342C31.4604 17.9616 31.3176 17.9234 31.1724 17.9234C31.0272 17.9234 30.8844 17.9616 30.7586 18.0342L20 24.1167L9.24139 18.0342C9.07255 17.9367 8.8747 17.902 8.68279 17.9361C8.49086 17.9701 8.31721 18.071 8.19215 18.2206C8.06728 18.3703 7.9993 18.5592 8.00004 18.7543V25.8961C8.00004 26.5547 8.26161 27.186 8.72713 27.6518C9.19283 28.1173 9.82422 28.3788 10.4828 28.3788H29.5172C30.1758 28.3788 30.8072 28.1173 31.2729 27.6518C31.7384 27.1861 32 26.5547 32 25.8961V18.7581C32.0013 18.6116 31.9636 18.4673 31.891 18.34C31.8182 18.2128 31.7131 18.1073 31.5862 18.0339L31.5862 18.0342Z" fill="white"/>
<path d="M29.5172 11H10.4828C9.82419 11 9.19281 11.2616 8.7271 11.7271C8.26158 12.1928 8.00001 12.8242 8.00001 13.4827V15.0344C7.99945 15.1802 8.03732 15.3237 8.1101 15.4501C8.1827 15.5766 8.28744 15.6815 8.4138 15.7545L19.5862 22.065C19.712 22.1376 19.8548 22.1758 20 22.1758C20.1452 22.1758 20.288 22.1376 20.4138 22.065L31.5861 15.7545C31.7125 15.6815 31.8172 15.5766 31.8898 15.4501C31.9626 15.3237 32.0005 15.1802 31.9999 15.0344V13.4827C31.9999 12.8242 31.7383 12.1928 31.2728 11.7271C30.8071 11.2616 30.1757 11 29.5172 11Z" fill="white"/>
</svg>
