<svg width="2500" height="2500" viewBox="0 0 2500 2500" fill="none" xmlns="http://www.w3.org/2000/svg">
<g clip-path="url(#clip0_259_405)">
<path d="M1250 0L2354.79 625V1875L1250 2500L145.208 1875V625L1250 0Z" fill="white"/>
<path d="M2157.5 1831.87L1286.46 2324.58V1940.83L1829.17 1642.29L2157.5 1831.87ZM2217.08 1777.92V747.5L1898.33 931.458V1593.75L2217.08 1777.92ZM338.958 1831.87L1210 2324.58V1940.83L667.292 1642.29L338.958 1831.87V1831.87ZM279.375 1777.92V747.5L598.125 931.458V1593.75L279.375 1777.92V1777.92ZM316.667 680.833L1210 175.417V546.458L637.708 861.25L633.333 863.75L316.667 680.833V680.833ZM2179.79 680.833L1286.46 175.417V546.458L1858.75 861.25L1863.12 863.75L2179.79 680.833V680.833Z" fill="#8ED6FB"/>
<path d="M1210 1853.54L674.583 1559.17V975.833L1210 1285V1853.54ZM1286.46 1853.54L1821.87 1559.17V975.833L1286.46 1285V1853.54ZM710.833 908.333L1248.33 612.708L1785.83 908.333L1248.33 1218.75L710.833 908.333" fill="#1C78C0"/>
</g>
<defs>
<clipPath id="clip0_259_405">
<rect width="2500" height="2500" fill="white"/>
</clipPath>
</defs>
</svg>
