<svg width="494" height="494" fill="none" xmlns="http://www.w3.org/2000/svg"><path d="m212.52.602-16.977 59.852c-15.559 4.285-30.375 10.391-44.102 18.199L97.015 48.38 48.367 97.028l30.273 54.426c-7.809 13.727-13.914 28.539-18.2 44.102L.59 212.533v68.949l59.852 16.977c4.285 15.559 10.39 30.375 18.199 44.102l-30.273 54.426 48.648 48.648 54.426-30.273c13.727 7.809 28.539 13.914 44.102 18.199l16.977 59.852h68.949l16.977-59.852c15.559-4.285 30.375-10.391 44.102-18.199l54.426 30.273 48.648-48.648-30.273-54.426c7.808-13.727 13.914-28.539 18.199-44.102l59.848-16.98V212.53l-59.852-16.977c-4.285-15.559-10.391-30.375-18.199-44.102l30.273-54.426-48.648-48.648-54.426 30.273c-13.727-7.809-28.539-13.914-44.102-18.199L281.465.599h-68.949l.004.003Zm34.477 123.2c67.844 0 123.2 55.359 123.2 123.2 0 67.844-55.359 123.2-123.2 123.2-67.844 0-123.2-55.359-123.2-123.2 0-67.844 55.359-123.2 123.2-123.2Zm0 33.602c-49.684 0-89.602 39.918-89.602 89.602 0 49.684 39.918 89.602 89.602 89.602 49.684 0 89.602-39.918 89.602-89.602 0-49.684-39.918-89.602-89.602-89.602Z" fill="#000"/></svg>