<svg role="img" viewBox="0 0 24 24" xmlns="http://www.w3.org/2000/svg"><title>Apollo GraphQL</title><path d="M12,0C18.623,0,24,5.377,24,12S18.623,24,12,24S0,18.623,0,12S5.377,0,12,0z M13.5,7.5 c0.414,0,0.75,0.336,0.75,0.75s-0.336,0.75-0.75,0.75s-0.75-0.336-0.75-0.75S13.086,7.5,13.5,7.5z M17.5,16.5 c0.414,0,0.75,0.336,0.75,0.75s-0.336,0.75-0.75,0.75s-0.75-0.336-0.75-0.75S17.086,16.5,17.5,16.5z M6.5,16.5 c0.414,0,0.75,0.336,0.75,0.75s-0.336,0.75-0.75,0.75s-0.75-0.336-0.75-0.75S6.086,16.5,6.5,16.5z M19.5,12 c0.414,0,0.75,0.336,0.75,0.75s-0.336,0.75-0.75,0.75s-0.75-0.336-0.75-0.75S19.086,12,19.5,12z M4.5,12 c0.414,0,0.75,0.336,0.75,0.75s-0.336,0.75-0.75,0.75s-0.75-0.336-0.75-0.75S4.086,12,4.5,12z M17.5,7.5 c0.414,0,0.75,0.336,0.75,0.75s-0.336,0.75-0.75,0.75s-0.75-0.336-0.75-0.75S17.086,7.5,17.5,7.5z M6.5,7.5 c0.414,0,0.75,0.336,0.75,0.75s-0.336,0.75-0.75,0.75s-0.75-0.336-0.75-0.75S6.086,7.5,6.5,7.5z M10.5,7.5 c0.414,0,0.75,0.336,0.75,0.75s-0.336,0.75-0.75,0.75s-0.75-0.336-0.75-0.75S10.086,7.5,10.5,7.5z" fill="#311C87"/></svg>
