<svg role="img" viewBox="0 0 24 24" xmlns="http://www.w3.org/2000/svg"><title>PostgreSQL</title><path d="M23.5594 14.7228a.5269.5269 0 0 0-.0563-.1191c-.139-.2632-.4768-.3418-.7551-.1761l-2.2065 1.3164c-.1582.0946-.2897.2306-.3805.3938-.0913.1635-.1411.3477-.1438.5323v.0069c0 .0612-.0094.1227-.0258.1817l-.0069.0249c-.0251.0803-.0577.1588-.0975.2344-.073.1394-.1704.2579-.285.3477-.1146.0899-.2464.1516-.387.1817-.1404.0303-.2845.0189-.4204-.0334-.1369-.0524-.2609-.1346-.3628-.2412-.1049-.1065-.1857-.2353-.2361-.3759-.0503-.1405-.0684-.2887-.0528-.4335.0156-.1449.0582-.2848.1245-.4099.0662-.125.1549-.235.2595-.3224.1045-.0874.2232-.1516.3477-.1884.1246-.0367.2533-.0456.3766-.0258.1003.0159.1961.0501.2821.1006.0857.0505.1608.1151.2204.1907a.5329.5329 0 0 0 .3811.2456.5333.5333 0 0 0 .4034-.0452.5347.5347 0 0 0 .2456-.3811.5322.5322 0 0 0-.0452-.4034 1.5847 1.5847 0 0 0-.5225-.4607 1.5834 1.5834 0 0 0-.6846-.2446 1.5763 1.5763 0 0 0-.9235.1336 1.5825 1.5825 0 0 0-.7002.6123 1.5873 1.5873 0 0 0-.2578.8549c-.0077.1917.0164.382.0702.5621.0538.1801.1362.3476.2418.4912.1055.1436.2324.2611.372.3446.1395.0835.291.1315.4438.1404.1529.0089.3043-.0171.4435-.0764.1392-.0593.2637-.1449.3648-.2509.1011-.106.1771-.2298.2228-.3622.0457-.1324.0598-.2708.0412-.4058-.0186-.135-.064-.265-.1327-.3809-.0687-.1159-.1588-.2195-.2637-.3033a1.5661 1.5661 0 0 0-.3477-.2412 1.5678 1.5678 0 0 0-.4099-.1245 1.5674 1.5674 0 0 0-.4335.0528c-.1405.0504-.2693.1312-.3759.2361-.1065.1019-.1887.2258-.2412.3628-.0524.1369-.0639.2845-.0334.4204.0303.1406.0918.2724.1817.387.0899.1146.2084.2102.3477.285.1394.0748.2914.1202.4458.1332l.0249.0069c.059.0164.1205.0258.1817.0258h.0069c.1846-.0027.3688-.0525.5323-.1438.1632-.0908.2992-.2223.3938-.3805l1.3164-2.2065c.1657-.2783.087-.6151-.1761-.7551zm-9.0009.7651a.5269.5269 0 0 0-.0258-.1817l-.0069-.0249c-.0251-.0803-.0577-.1588-.0975-.2344-.073-.1394-.1704-.2579-.285-.3477-.1146-.0899-.2464-.1516-.387-.1817-.1404-.0303-.2845-.0189-.4204.0334-.1369.0524-.2609.1346-.3628.2412-.1049.1065-.1857.2353-.2361.3759-.0503.1405-.0684.2887-.0528.4335.0156.1449.0582.2848.1245.4099.0662.125.1549.235.2595.3224.1045.0874.2232.1516.3477.1884.1246.0367.2533.0456.3766.0258.1003-.0159.1961-.0501.2821-.1006.0857-.0505.1608-.1151.2204-.1907a.5329.5329 0 0 0 .3811-.2456.5333.5333 0 0 0 .0452-.4034.5347.5347 0 0 0-.2456-.3811.5322.5322 0 0 0-.4034-.0452 1.5847 1.5847 0 0 0-.5225.4607 1.5834 1.5834 0 0 0-.2446.6846 1.5763 1.5763 0 0 0 .1336.9235 1.5825 1.5825 0 0 0 .6123.7002 1.5873 1.5873 0 0 0 .8549.2578c.1917.0077.382-.0164.5621-.0702.1801-.0538.3476-.1362.4912-.2418.1436-.1055.2611-.2324.3446-.372.0835-.1395.1315-.291.1404-.4438.0089-.1529-.0171-.3043-.0764-.4435-.0593-.1392-.1449-.2637-.2509-.3648-.106-.1011-.2298-.1771-.3622-.2228-.1324-.0457-.2708-.0598-.4058-.0412-.135.0186-.265.064-.3809.1327-.1159.0687-.2195.1588-.3033.2637a1.5661 1.5661 0 0 0-.2412.3477 1.5678 1.5678 0 0 0-.1245.4099 1.5674 1.5674 0 0 0 .0528.4335c.0504.1405.1312.2693.2361.3759.1019.1065.2258.1887.3628.2412.1369.0524.2845.0639.4204.0334.1406-.0303.2724-.0918.387-.1817.1146-.0899.2102-.2084.285-.3477.0748-.1394.1202-.2914.1332-.4458l.0069-.0249c.0164-.059.0258-.1205.0258-.1817v-.0069c-.0027-.1846-.0525-.3688-.1438-.5323-.0908-.1632-.2223-.2992-.3805-.3938l-2.2065-1.3164c-.2783-.1657-.6151-.087-.7551.1761a.5269.5269 0 0 0-.0563.1191z" fill="#336791"/></svg>
