<svg width="60" height="32" viewBox="0 0 60 32" fill="none" xmlns="http://www.w3.org/2000/svg">
<g clip-path="url(#clip0_347:1783)">
<path d="M30.1262 31.9928C31.1165 31.9697 32.063 31.5799 32.7824 30.8991L57.7824 6.899C58.5454 6.16053 58.9844 5.14971 59.0033 4.08808C59.0222 3.02646 58.6194 2.00068 57.8832 1.23555C57.147 0.470409 56.1375 0.0283039 55.0759 0.00623836C54.0144 -0.0158271 52.9874 0.383924 52.22 1.11781L30.0012 22.4616L7.78242 1.11781C7.01512 0.383924 5.98812 -0.0158271 4.92652 0.00623836C3.86492 0.0283039 2.85542 0.470409 2.11922 1.23555C1.38312 2.00068 0.980325 3.02646 0.999225 4.08808C1.01803 5.14971 1.45712 6.16053 2.22002 6.899L27.22 30.8991C27.6071 31.2659 28.0636 31.5516 28.5627 31.7395C29.0617 31.9273 29.5933 32.0134 30.1262 31.9928Z" fill="black"/>
</g>
<defs>
<clipPath id="clip0_347:1783">
<rect width="32" height="60" fill="white" transform="translate(60.001 -0.000488281) rotate(90)"/>
</clipPath>
</defs>
</svg>
