<svg width="20" height="20" viewBox="0 0 20 20" fill="none" xmlns="http://www.w3.org/2000/svg">
<path d="M14.0603 12.9914C13.9691 12.9964 13.883 12.9964 13.7918 12.9964C12.3176 12.9964 10.9296 12.424 9.88604 11.3804C8.84247 10.3369 8.27003 8.94883 8.27003 7.47466C8.27003 6.63373 8.45747 5.82319 8.80701 5.08864C8.96405 4.76443 9.15149 4.45541 9.36932 4.16666C8.98432 4.20718 8.61451 4.28824 8.25483 4.39969C5.88401 5.14943 4.16669 7.36321 4.16669 9.98226C4.16669 13.2143 6.78573 15.8333 10.0178 15.8333C11.806 15.8333 13.4017 15.0329 14.4757 13.7715C14.7189 13.4828 14.9418 13.1687 15.1241 12.8343C14.7797 12.9205 14.425 12.9762 14.0603 12.9914Z" fill="#191820"/>
</svg>
