<svg role="img" viewBox="0 0 24 24" xmlns="http://www.w3.org/2000/svg"><title>Prisma</title><path d="M21.8068 18.2848L13.5528.7565c-.207-.4382-.639-.7273-1.1286-.7541-.5023-.0293-.9523.2061-1.2062.6253L2.266 15.1271c-.2832.4654-.2832 1.0464 0 1.5118l3.9495 6.5045c.2832.4654.8007.7455 1.3553.7341l9.2699-.1854c.5546-.0114 1.0611-.3196 1.3259-.8068l2.6657-4.8985c.2647-.4871.2647-1.0996 0-1.5867zM11.9924 21.8242L4.8853 10.6738c-.2832-.4654-.2832-1.0464 0-1.5118l5.1071-8.4141c.2832-.4654.8007-.7455 1.3553-.7341.5546.0114 1.0611.3196 1.3259.8068l2.6657 4.8985c.2647.4871.2647 1.0996 0 1.5867z" fill="currentColor"/></svg>
