<svg width="254" height="178" viewBox="0 0 254 178" fill="none" xmlns="http://www.w3.org/2000/svg">
<path d="M248.021 27.9863C245.113 17.106 236.542 8.53551 225.662 5.62716C205.941 0.341551 126.857 0.341553 126.857 0.341553C126.857 0.341553 47.7721 0.341551 28.0515 5.62716C17.1712 8.53551 8.6007 17.106 5.69235 27.9863C0.406738 47.7069 0.406738 88.8566 0.406738 88.8566C0.406738 88.8566 0.406738 130.006 5.69235 149.727C8.6007 160.607 17.1712 169.178 28.0515 172.086C47.7721 177.372 126.857 177.372 126.857 177.372C126.857 177.372 205.941 177.372 225.662 172.086C236.542 169.178 245.113 160.607 248.021 149.727C253.307 130.006 253.307 88.8566 253.307 88.8566C253.307 88.8566 253.307 47.7069 248.021 27.9863ZM101.567 126.792V50.9216L167.27 88.8566L101.567 126.792Z" fill="black"/>
</svg>
