<svg role="img" viewBox="0 0 24 24" xmlns="http://www.w3.org/2000/svg"><title>GitHub Actions</title><path d="M10.984 13.836a.5.5 0 0 1-.353-.146L8.146 11.207a.5.5 0 0 1 0-.707l2.485-2.483a.5.5 0 0 1 .707.707L9.207 10.854l2.131 2.13a.5.5 0 0 1-.354.852zM13.016 13.836a.5.5 0 0 1-.354-.852l2.131-2.13-2.131-2.13a.5.5 0 0 1 .707-.708l2.485 2.483a.5.5 0 0 1 0 .707L13.37 13.69a.5.5 0 0 1-.354.146z" fill="currentColor"/><path d="M12 0a12 12 0 1 0 0 24 12 12 0 0 0 0-24zm0 22.5a10.5 10.5 0 1 1 0-21 10.5 10.5 0 0 1 0 21z" fill="currentColor"/></svg>
