<svg width="514" height="514" fill="none" xmlns="http://www.w3.org/2000/svg"><path d="m13.996 433.87 112-112a23.321 23.321 0 0 1 16.449-6.785 23.321 23.321 0 0 1 16.449 6.785l18.434-18.199s1.867-1.168 2.801-1.867a184.803 184.803 0 0 1-39.902-114.8 186.685 186.685 0 0 1 40.465-116.25 186.639 186.639 0 0 1 104.04-65.785 186.637 186.637 0 0 1 122.37 13.28A186.66 186.66 0 0 1 509.18 227.044 186.66 186.66 0 0 1 328.694 373.47a186.674 186.674 0 0 1-116.59-39.465s0 1.867-1.867 2.566l-18.199 18.434a23.325 23.325 0 0 1 6.785 16.449 23.325 23.325 0 0 1-6.785 16.449l-112 112a46.695 46.695 0 0 1-45.102 12.086 46.693 46.693 0 0 1-20.93-78.118h-.01ZM326.896 327c37.129 0 72.738-14.75 98.996-41.004A140.013 140.013 0 0 0 466.896 187c0-37.129-14.75-72.738-41.004-98.996A140.013 140.013 0 0 0 326.896 47 140.013 140.013 0 0 0 227.9 88.004 140.013 140.013 0 0 0 186.896 187c0 37.129 14.75 72.738 41.004 98.996A140.013 140.013 0 0 0 326.896 327Z" fill="#000"/></svg>