<svg width="18" height="20" viewBox="0 0 18 20" fill="none" xmlns="http://www.w3.org/2000/svg">
<path d="M15.9932 2.61129C13.8287 0.186537 10.3065 0.186537 8.14161 2.61129L1.41145 10.1502C-0.13463 11.8822 -0.134528 14.7005 1.41165 16.4324C2.18481 17.2985 3.20006 17.7315 4.21571 17.7314C5.2311 17.7313 6.24689 17.2984 7.01991 16.4324L13.189 9.52175C13.6385 9.01837 13.886 8.34905 13.8861 7.63713C13.8861 6.92518 13.6386 6.2559 13.1891 5.75236C12.2613 4.71318 10.7517 4.71321 9.82411 5.75255L5.78974 10.2716C5.48001 10.6185 5.48001 11.1811 5.78967 11.5281C6.09937 11.8751 6.60157 11.875 6.91133 11.5281L10.9457 7.00896C11.255 6.66254 11.7581 6.66247 12.0674 7.00889C12.2172 7.17668 12.2997 7.3998 12.2997 7.63709C12.2997 7.87439 12.2172 8.09743 12.0674 8.2653L5.89825 15.1759C4.97049 16.2151 3.46101 16.2152 2.53331 15.176C1.60561 14.1367 1.60554 12.4458 2.53314 11.4065L9.26327 3.86774C10.8096 2.13568 13.3255 2.13568 14.8715 3.86774C15.6206 4.70672 16.0331 5.82227 16.0331 7.00881C16.0331 8.19535 15.6206 9.31091 14.8715 10.15L8.1415 17.689C7.83181 18.0359 7.83181 18.5984 8.14157 18.9454C8.29645 19.119 8.49944 19.2056 8.70238 19.2056C8.90537 19.2056 9.10835 19.1188 9.26323 18.9454L15.9932 11.4064C17.0418 10.2318 17.6194 8.67008 17.6194 7.00885C17.6194 5.34765 17.0418 3.78589 15.9932 2.61129Z" fill="#1C75BC"/>
</svg>
