<svg width="20" height="20" viewBox="0 0 20 20" fill="none" xmlns="http://www.w3.org/2000/svg">
<path d="M9.99386 2.5021C9.974 2.50565 9.95446 2.51056 9.93533 2.51663C9.82956 2.54035 9.73539 2.59992 9.66872 2.68531C9.60203 2.7707 9.56702 2.87658 9.56964 2.98485V4.38953C9.56964 4.55686 9.65889 4.71143 9.80375 4.79504C9.94861 4.87866 10.1271 4.87866 10.272 4.79504C10.4168 4.71143 10.5061 4.55686 10.5061 4.38953V2.98485C10.5109 2.85012 10.4574 2.7199 10.3592 2.62752C10.2612 2.53503 10.1281 2.48935 9.99387 2.5021L9.99386 2.5021ZM5.01886 4.56511C4.89919 4.57671 4.78851 4.63388 4.7098 4.72481C4.6311 4.81574 4.59045 4.93343 4.59619 5.05362C4.60194 5.17371 4.65368 5.287 4.74074 5.36998L5.72121 6.36498C5.84151 6.48527 6.01678 6.5322 6.18109 6.4882C6.3454 6.4442 6.47375 6.31586 6.51773 6.15156C6.56172 5.98726 6.51481 5.812 6.39451 5.69168L5.39951 4.71121C5.31192 4.6185 5.19037 4.56562 5.06286 4.56468C5.04823 4.56395 5.03349 4.56395 5.01886 4.56468L5.01886 4.56511ZM14.9541 4.56511C14.8473 4.58048 14.7491 4.63221 14.676 4.71164L13.681 5.69211C13.5607 5.81241 13.5138 5.98769 13.5578 6.15199C13.6018 6.3164 13.7301 6.44465 13.8944 6.48874C14.0587 6.53274 14.234 6.48571 14.3543 6.36552L15.3348 5.37052C15.4257 5.28262 15.4774 5.1618 15.4778 5.03535C15.4782 4.90889 15.4275 4.78765 15.3372 4.69924C15.2468 4.61072 15.1246 4.56254 14.9981 4.56557C14.9835 4.56494 14.9688 4.56494 14.9541 4.56557L14.9541 4.56511ZM10.0377 6.26245C7.97753 6.26245 6.29191 7.94808 6.29191 10.0083C6.29191 12.0685 7.97753 13.7541 10.0377 13.7541C12.0979 13.7541 13.7836 12.0685 13.7836 10.0083C13.7836 7.94808 12.0979 6.26245 10.0377 6.26245ZM2.92628 9.54005C2.75895 9.55573 2.61283 9.65951 2.54281 9.81232C2.47278 9.96502 2.48951 10.1435 2.58681 10.2806C2.68401 10.4176 2.84695 10.4922 3.01429 10.4765H4.41898C4.58631 10.4765 4.74088 10.3873 4.82449 10.2424C4.9081 10.0975 4.9081 9.91903 4.82449 9.77417C4.74088 9.62932 4.5863 9.54006 4.41898 9.54006H3.01429C2.99966 9.53933 2.98492 9.53933 2.97029 9.54006C2.95566 9.53933 2.94092 9.53933 2.92629 9.54006L2.92628 9.54005ZM15.5685 9.54005C15.4011 9.55573 15.255 9.65951 15.185 9.81232C15.115 9.96502 15.1317 10.1435 15.229 10.2806C15.3262 10.4176 15.4891 10.4922 15.6565 10.4765H17.0612C17.2285 10.4765 17.3831 10.3873 17.4667 10.2424C17.5503 10.0975 17.5503 9.91903 17.4667 9.77417C17.3831 9.62932 17.2285 9.54006 17.0612 9.54006H15.6565C15.6418 9.53933 15.6271 9.53933 15.6125 9.54006C15.5978 9.53933 15.5831 9.53933 15.5685 9.54006L15.5685 9.54005ZM13.9737 13.5055C13.9538 13.5091 13.9343 13.514 13.9151 13.5201C13.8003 13.5409 13.6973 13.6038 13.6265 13.6965C13.5556 13.7892 13.522 13.905 13.532 14.0212C13.5421 14.1376 13.5952 14.2458 13.681 14.325L14.676 15.3054C14.7593 15.409 14.8829 15.4723 15.0156 15.4795C15.1483 15.4867 15.2779 15.437 15.3719 15.3431C15.4659 15.249 15.5155 15.1195 15.5084 14.9867C15.5012 14.8539 15.4379 14.7305 15.3344 14.6471L14.3539 13.6521C14.2561 13.5477 14.1158 13.4937 13.9731 13.5056L13.9737 13.5055ZM5.99933 13.5201C5.8944 13.5314 5.79647 13.5777 5.7212 13.6517L4.74073 14.6467C4.63716 14.73 4.57382 14.8535 4.56671 14.9862C4.5595 15.119 4.60915 15.2486 4.70311 15.3425C4.79717 15.4366 4.92667 15.4861 5.0595 15.479C5.19223 15.4718 5.31566 15.4086 5.39906 15.305L6.39406 14.3245C6.49293 14.2325 6.54728 14.1023 6.5432 13.9674C6.53912 13.8323 6.47694 13.7057 6.37263 13.62C6.26832 13.5342 6.13204 13.4976 5.99888 13.5196L5.99933 13.5201ZM9.99373 15.1443C9.97387 15.1479 9.95432 15.1528 9.9352 15.1589C9.82943 15.1826 9.73526 15.2422 9.66858 15.3276C9.6019 15.413 9.56689 15.5188 9.5695 15.6271V17.0318C9.5695 17.1991 9.65876 17.3537 9.80362 17.4373C9.94848 17.5209 10.127 17.5209 10.2718 17.4373C10.4167 17.3537 10.506 17.1991 10.506 17.0318V15.6271C10.5108 15.4924 10.4573 15.3621 10.3591 15.2698C10.2611 15.1773 10.1279 15.1316 9.99374 15.1444L9.99373 15.1443Z" fill="white"/>
</svg>
