<svg role="img" viewBox="0 0 24 24" xmlns="http://www.w3.org/2000/svg"><title>GraphQL</title><path d="M5.8 3.6l-.7-.8c-.3-.4-.9-.3-1.2.1-.3.4-.3.9.1 1.2l.8.7c-.3.7-.4 1.5-.4 2.3h-.6c-.5 0-.9.4-.9.9s.4.9.9.9h.6c0 .8.1 1.6.4 2.3l-.8.7c-.4.3-.4.8-.1 1.2.2.2.4.3.7.3.2 0 .4-.1.5-.2l.7-.8c.7.3 1.5.4 2.3.4v.6c0 .5.4.9.9.9s.9-.4.9-.9v-.6c.8 0 1.6-.1 2.3-.4l.7.8c.1.1.3.2.5.2.2 0 .5-.1.7-.3.3-.4.3-.9-.1-1.2l-.8-.7c.3-.7.4-1.5.4-2.3h.6c.5 0 .9-.4.9-.9s-.4-.9-.9-.9h-.6c0-.8-.1-1.6-.4-2.3l.8-.7c.4-.3.4-.8.1-1.2-.3-.4-.8-.4-1.2-.1l-.7.8c-.7-.3-1.5-.4-2.3-.4v-.6c0-.5-.4-.9-.9-.9s-.9.4-.9.9v.6c-.8 0-1.6.1-2.3.4zM12 5.8c-3.4 0-6.2 2.8-6.2 6.2s2.8 6.2 6.2 6.2 6.2-2.8 6.2-6.2-2.8-6.2-6.2-6.2zm0 11.3c-2.8 0-5.1-2.3-5.1-5.1s2.3-5.1 5.1-5.1 5.1 2.3 5.1 5.1-2.3 5.1-5.1 5.1z" fill="#E10098"/></svg>
