<svg role="img" viewBox="0 0 24 24" xmlns="http://www.w3.org/2000/svg"><title>Prettier</title><path d="M8.571 23.429A.571.571 0 0 1 8 22.857V1.143c0-.315.256-.571.571-.571s.571.256.571.571v21.714a.571.571 0 0 1-.571.571zm2.858 0a.571.571 0 0 1-.572-.571V1.143c0-.315.256-.571.572-.571s.571.256.571.571v21.714a.571.571 0 0 1-.571.571zM5.714 6.857a.571.571 0 0 1-.571-.571V1.143c0-.315.256-.571.571-.571s.572.256.572.571v5.143a.571.571 0 0 1-.572.571zm0 5.714a.571.571 0 0 1-.571-.571V8.857c0-.315.256-.571.571-.571s.572.256.572.571V12a.571.571 0 0 1-.572.571zm0 5.715a.571.571 0 0 1-.571-.572v-2.857c0-.315.256-.571.571-.571s.572.256.572.571v2.857a.571.571 0 0 1-.572.572zm0 5.714a.571.571 0 0 1-.571-.571v-2.857c0-.315.256-.572.571-.572s.572.257.572.572v2.857a.571.571 0 0 1-.572.571zM2.857 12.571A.571.571 0 0 1 2.286 12V1.143c0-.315.256-.571.571-.571s.571.256.571.571V12a.571.571 0 0 1-.571.571zm0 5.715a.571.571 0 0 1-.571-.572v-2.857c0-.315.256-.571.571-.571s.571.256.571.571v2.857a.571.571 0 0 1-.571.572zm0 5.714a.571.571 0 0 1-.571-.571v-2.857c0-.315.256-.572.571-.572s.571.257.571.572v2.857a.571.571 0 0 1-.571.571zM0 18.286a.571.571 0 0 1-.571-.572V1.143c0-.315.256-.571.571-.571s.572.256.572.571v16.571A.571.571 0 0 1 0 18.286z" fill="#F7B93E"/></svg>
