<?xml version="1.0" standalone="no"?>
<!DOCTYPE svg PUBLIC "-//W3C//DTD SVG 20010904//EN"
 "http://www.w3.org/TR/2001/REC-SVG-20010904/DTD/svg10.dtd">
<svg version="1.0" xmlns="http://www.w3.org/2000/svg"
 width="512.000000pt" height="512.000000pt" viewBox="0 0 512.000000 512.000000"
 preserveAspectRatio="xMidYMid meet">

<g transform="translate(0.000000,512.000000) scale(0.100000,-0.100000)"
fill="#000000" stroke="none">
<path d="M2361 5109 c-635 -48 -1197 -315 -1643 -777 -410 -426 -640 -923
-703 -1516 -98 -932 340 -1864 1120 -2383 686 -457 1552 -556 2331 -268 227
84 510 247 711 409 485 392 825 995 920 1633 22 147 24 530 4 673 -64 463
-243 890 -529 1260 -91 117 -287 316 -407 413 -505 407 -1150 606 -1804 556z
m460 -375 c472 -65 930 -290 1273 -623 194 -189 337 -383 439 -594 101 -207
151 -375 189 -622 30 -195 32 -527 5 -675 -88 -479 -291 -865 -636 -1211 -360
-360 -780 -567 -1256 -620 -151 -17 -469 -17 -580 -1 -228 35 -425 97 -640
202 -681 333 -1152 986 -1224 1695 -29 287 -23 477 25 713 76 379 273 760 551
1061 139 152 362 325 553 429 218 119 561 230 790 255 100 11 408 6 511 -9z"/>
<path d="M3329 3837 c-274 -220 -337 -272 -1032 -850 l-359 -297 387 2 388 3
434 655 c392 592 469 711 461 709 -2 0 -127 -100 -279 -222z"/>
<path d="M2397 2416 c-3 -7 -135 -209 -293 -447 -494 -747 -594 -899 -586
-899 11 0 506 399 872 704 184 153 434 359 555 458 121 100 224 185 229 189 6
5 -162 9 -381 9 -323 0 -392 -2 -396 -14z"/>
</g>
</svg>
