<svg width="30" height="34" viewBox="0 0 30 34" fill="none" xmlns="http://www.w3.org/2000/svg">
<path fill-rule="evenodd" clip-rule="evenodd" d="M14.2105 0.333313C8.97836 0.333313 4.73684 4.59727 4.73684 9.85712C4.73684 15.117 8.97836 19.3809 14.2105 19.3809C14.399 19.3809 14.5862 19.3754 14.7719 19.3645C14.8464 19.3753 14.9225 19.3809 15 19.3809C20.9669 19.3809 26.0192 24.1627 26.7511 30.492H3.24942C3.56976 27.7352 4.71326 25.2617 6.39803 23.353C6.97682 22.6972 6.91725 21.694 6.26499 21.1122C5.61273 20.5303 4.61477 20.5902 4.03599 21.2459C1.52625 24.0892 0 27.9033 0 32.0793C0 32.956 0.706919 33.6666 1.57895 33.6666H28.4211C29.2931 33.6666 30 32.956 30 32.0793C30 25.3191 25.977 19.4606 20.2441 17.2C22.3453 15.4531 23.6842 12.8123 23.6842 9.85712C23.6842 4.59727 19.4427 0.333313 14.2105 0.333313ZM7.89474 9.85712C7.89474 6.35055 10.7224 3.50792 14.2105 3.50792C17.6986 3.50792 20.5263 6.35055 20.5263 9.85712C20.5263 13.3637 17.6986 16.2063 14.2105 16.2063C10.7224 16.2063 7.89474 13.3637 7.89474 9.85712Z" fill="#E01E23"/>
</svg>
