<svg width="526" height="472" fill="none" xmlns="http://www.w3.org/2000/svg"><path d="M525.5 236c0-42-42.875-72.625-104.12-91.875 14-62.125 8.75-114.62-27.125-135.62s-84.875.875-131.25 43.75C216.63 9.38 167.63-12.495 131.755 8.505s-41.125 73.5-27.125 135.62C43.38 163.375.51 194 .51 236s42.875 72.625 104.12 91.875c-14 62.125-8.75 114.62 27.125 135.62 9.625 5.25 20.125 7.875 30.625 7.875 30.625 0 66.5-20.125 100.62-52.5 34.125 31.5 70 52.5 100.62 52.5 10.5 0 21-2.625 30.625-7.875 35.875-21 41.125-73.5 27.125-135.62C482.62 308.625 525.49 278 525.49 236h.01ZM376.75 39.12c17.5 10.5 21.875 46.375 11.375 96.25-19.25-4.375-40.25-7.875-61.25-9.625-12.25-17.5-25.375-33.25-39.375-48.125 37.625-34.125 71.75-49 89.25-38.5Zm-7 238.88c3.5 8.75 6.125 16.625 8.75 25.375l-26.25 5.25c2.625-5.25 6.125-9.625 8.75-14.875 3.5-6.125 6.125-11.375 8.75-15.75Zm-38.5-2.625c-7.875 13.125-15.75 26.25-23.625 37.625-14.875.875-28.875 1.75-44.625 1.75s-29.75-.875-44.625-1.75c-7.875-12.25-15.75-24.5-23.625-37.625s-14.875-26.25-21-39.375c6.125-13.125 13.125-26.25 21-39.375s15.75-26.25 23.625-37.625c14-.875 28.875-1.75 44.625-1.75s29.75.875 44.625 1.75c7.875 12.25 15.75 24.5 23.625 37.625s14.875 26.25 21 39.375c-6.125 13.125-13.125 26.25-21 39.375Zm-68.25 94.5c-6.125-6.125-11.375-13.125-17.5-20.125h35c-6.125 7-11.375 13.125-17.5 20.125Zm-98.875-77c2.625 5.25 6.125 9.625 8.75 14.875l-26.25-5.25c2.625-7.875 5.25-16.625 8.75-25.375 3.5 5.25 6.125 10.5 8.75 15.75ZM156.25 194c-3.5-8.75-6.125-16.625-8.75-25.375l26.25-5.25c-2.625 5.25-6.125 9.625-8.75 14.875-3.5 6.125-6.125 11.375-8.75 15.75ZM263 102.125c6.125 6.125 11.375 13.125 17.5 20.125h-35c6.125-7 11.375-13.125 17.5-20.125Zm98.875 77c-2.625-5.25-6.125-9.625-8.75-14.875l26.25 5.25c-2.625 7.875-5.25 16.625-8.75 25.375-3.5-5.25-6.125-10.5-8.75-15.75Zm-212.62-140c3.5-1.75 7.875-3.5 13.125-3.5 19.25 0 46.375 14.875 76.125 42-13.125 14.875-26.25 30.625-39.375 48.125-21 2.625-42 5.25-61.25 9.625-10.5-49.875-6.125-85.75 11.375-96.25Zm-113.75 196.88c0-20.125 29.75-42 77.875-57.75 6.125 19.25 13.125 38.5 21.875 57.75-8.75 19.25-15.75 38.5-21.875 57.75-48.125-15.75-77.875-37.625-77.875-57.75Zm113.75 196.88c-17.5-10.5-21.875-46.375-11.375-96.25 19.25 4.375 40.25 7.875 61.25 9.625 12.25 17.5 25.375 33.25 39.375 48.125-37.625 34.125-71.75 49-89.25 38.5Zm227.5 0c-17.5 10.5-51.625-4.375-89.25-38.5 13.125-14.875 26.25-30.625 39.375-48.125 21-2.625 42-5.25 61.25-9.625 10.5 49.875 6.125 85.75-11.375 96.25Zm35.875-139.12c-6.125-19.25-13.125-38.5-21.875-57.75 8.75-19.25 15.75-38.5 21.875-57.75 48.125 15.75 77.875 37.625 77.875 57.75s-29.75 42-77.875 57.75Z" fill="#000"/><path d="M315.5 236c0 28.996-23.504 52.5-52.5 52.5s-52.5-23.504-52.5-52.5 23.504-52.5 52.5-52.5 52.5 23.504 52.5 52.5Z" fill="#000"/></svg>