<svg role="img" viewBox="0 0 24 24" xmlns="http://www.w3.org/2000/svg"><title>Jest</title><path d="M22.251 11.82a3.117 3.117 0 0 0-2.328-3.01L22.911 0H8.104L11.092 8.81a3.116 3.116 0 0 0-2.244 2.988c0 1.726 1.407 3.132 3.132 3.132.945 0 1.791-.424 2.357-1.093l.105.004c1.481 0 2.68-1.2 2.68-2.681 0-.235-.031-.46-.088-.677zM15.538 9.132c-.305-.012-.608-.048-.905-.107l-2.518 2.518a1.068 1.068 0 0 1-1.511-1.511l2.518-2.518a9.124 9.124 0 0 1-.107-.905c0-4.957 4.02-8.977 8.977-8.977S30.969 1.652 30.969 6.609c0 4.958-4.02 8.978-8.977 8.978a8.93 8.93 0 0 1-4.786-1.392l-2.376 2.376a1.068 1.068 0 0 1-1.511-1.511l2.376-2.376a8.93 8.93 0 0 1-1.392-4.786c0-.656.075-1.295.218-1.911z" fill="#C21325"/></svg>
