<svg width="60" height="32" viewBox="0 0 60 32" fill="none" xmlns="http://www.w3.org/2000/svg">
<g clip-path="url(#clip0_347:1783)">
<path d="M29.8757 0.00622368C28.8854 0.0293237 27.9389 0.419122 27.2195 1.09992L2.21952 25.1C1.45659 25.8385 1.01757 26.8493 0.998682 27.9109C0.979795 28.9726 1.38258 29.9983 2.11876 30.7635C2.85494 31.5286 3.86445 31.9707 4.92602 31.9928C5.98758 32.0149 7.01458 31.6151 7.78192 30.8812L30.0007 9.53742L52.2195 30.8812C52.9868 31.6151 54.0138 32.0149 55.0754 31.9928C56.137 31.9707 57.1465 31.5286 57.8827 30.7635C58.6188 29.9983 59.0216 28.9726 59.0027 27.9109C58.9839 26.8493 58.5448 25.8385 57.7819 25.1L32.7819 1.09992C32.3948 0.733122 31.9383 0.447423 31.4392 0.259523C30.9402 0.0717234 30.4086 -0.0143763 29.8757 0.00622368Z" fill="black"/>
</g>
<defs>
<clipPath id="clip0_347:1783">
<rect width="32" height="60" fill="white" transform="translate(0.000976562 31.9995) rotate(-90)"/>
</clipPath>
</defs>
</svg>
