<svg width="254" height="178" fill="none" xmlns="http://www.w3.org/2000/svg"><path d="M248.021 27.986c-2.908-10.88-11.479-19.45-22.359-22.359C205.941.342 126.857.342 126.857.342s-79.085 0-98.805 5.285C17.172 8.536 8.6 17.106 5.692 27.987.407 47.706.407 88.856.407 88.856s0 41.149 5.285 60.87c2.909 10.88 11.48 19.451 22.36 22.359 19.72 5.286 98.805 5.286 98.805 5.286s79.084 0 98.805-5.286c10.88-2.908 19.451-11.479 22.359-22.359 5.286-19.721 5.286-60.87 5.286-60.87s0-41.15-5.286-60.87Zm-146.454 98.806v-75.87l65.703 37.935-65.703 37.935Z" fill="#000"/></svg>