<svg width="542" height="530" fill="none" xmlns="http://www.w3.org/2000/svg"><path fill-rule="evenodd" clip-rule="evenodd" d="M541.97 268.3a16.936 16.936 0 0 1-16.934 16.942h-73.629a16.958 16.958 0 0 1-12.184-4.848 16.941 16.941 0 0 1-5.078-12.09c0-4.547 1.832-8.902 5.078-12.09a16.936 16.936 0 0 1 12.184-4.844h73.629a16.919 16.919 0 0 1 11.977 4.957 16.933 16.933 0 0 1 4.957 11.973ZM417.93 163.48l63.828-36.832v-.004a16.94 16.94 0 0 1 16.723.274 16.935 16.935 0 0 1 8.328 14.508 16.923 16.923 0 0 1-8.191 14.582l-63.828 36.84a16.946 16.946 0 0 1-23.547-6.004 16.93 16.93 0 0 1-1.594-13.098 16.925 16.925 0 0 1 8.281-10.266Zm-6.742-104.87h-.004a16.957 16.957 0 0 0-.012-16.957 16.95 16.95 0 0 0-14.695-8.465 16.946 16.946 0 0 0-14.676 8.488l-36.812 63.793a16.94 16.94 0 0 0 29.344 16.935l36.82-63.793.035-.001Zm96.023 346.84a16.964 16.964 0 0 1-10.289 7.887 16.965 16.965 0 0 1-12.852-1.688l-63.828-36.852a16.925 16.925 0 0 1-8.469-14.664 16.93 16.93 0 0 1 8.465-14.664 16.924 16.924 0 0 1 16.934 0L501 382.313a16.944 16.944 0 0 1 6.203 23.137h.008Zm-380.72-56.656a16.937 16.937 0 0 1-6.192 23.133l-63.828 36.871a16.947 16.947 0 0 1-16.94.012 16.946 16.946 0 0 1-8.481-14.664 16.949 16.949 0 0 1 8.46-14.68l63.856-36.871a16.954 16.954 0 0 1 12.848-1.692c4.336 1.164 8.031 4 10.277 7.891Zm-35.875-65.703H16.97a16.933 16.933 0 0 1-14.402-8.559 16.93 16.93 0 0 1 0-16.754 16.943 16.943 0 0 1 14.402-8.558h73.645a16.948 16.948 0 0 1 14.402 8.558 16.939 16.939 0 0 1-14.402 25.313Zm40.242-97.402h-.004a16.931 16.931 0 0 1-23.14 6.207l-63.828-36.84h.004a16.947 16.947 0 0 1-8.465-14.68 16.953 16.953 0 0 1 8.484-14.668 16.942 16.942 0 0 1 16.945.012l63.828 36.84a16.939 16.939 0 0 1 6.204 23.129h-.028Zm37.066-63.402a16.933 16.933 0 1 0 29.324-16.938L160.42 41.54a16.928 16.928 0 0 0-10.285-8.207 16.932 16.932 0 0 0-21.004 12.113 16.93 16.93 0 0 0 1.953 13.012l36.84 63.829Zm103.08-14.301a16.944 16.944 0 0 1-16.946-16.93V17.415c0-6.05 3.231-11.641 8.469-14.668a16.955 16.955 0 0 1 16.941 0 16.945 16.945 0 0 1 8.469 14.668v73.641a16.961 16.961 0 0 1-4.961 11.969 16.93 16.93 0 0 1-11.973 4.961h.001Zm69.754 95.215a93.017 93.017 0 0 1 26.914 74.75 16.93 16.93 0 0 1-16.86 15.535c-.468 0-.937 0-1.414-.054a16.943 16.943 0 0 1-15.488-18.274 59.166 59.166 0 0 0-17.113-48.016 64.227 64.227 0 0 0-29.414-16.758 16.936 16.936 0 0 1-12.237-20.636 16.942 16.942 0 0 1 20.667-12.176 98.132 98.132 0 0 1 44.945 25.629Zm6.359 147.75c40.945-47.926 41.355-114.57.903-155.02a109.075 109.075 0 0 0-154.054 0c-40.441 40.457-40.062 107.1.902 155.02l8.16 9.551a62.293 62.293 0 0 1 14.902 33.492h106.13a62.257 62.257 0 0 1 14.902-33.492l8.152-9.551h.003Zm-50.902 144.68h-49.027c-5.527-.086-9.992-4.547-10.078-10.074v-7.328h69.191v7.348-.004a10.238 10.238 0 0 1-10.086 10.059v-.001Zm27.336-67.785v16.492h-105.12v-16.473l105.12-.019Zm48.418-255.87h.004a143.166 143.166 0 0 0-201.94 0 136.942 136.942 0 0 0-40.191 99.855 160.5 160.5 0 0 0 39.289 101.12l8.149 9.543a28.811 28.811 0 0 1 7.281 19.723v43.316a32.748 32.748 0 0 0 5.062 17.465 32.72 32.72 0 0 0 13.602 12.07v10.508a44.008 44.008 0 0 0 12.887 31.074 43.985 43.985 0 0 0 31.07 12.883h49.027a43.998 43.998 0 0 0 43.957-43.957v-11.23a32.707 32.707 0 0 0 17.258-28.812v-43.301a28.804 28.804 0 0 1 7.281-19.719l8.16-9.543a160.526 160.526 0 0 0 39.289-101.12 136.885 136.885 0 0 0-40.176-99.855l-.009-.02Z" fill="#000"/></svg>