<svg width="36" height="34" viewBox="0 0 36 34" fill="none" xmlns="http://www.w3.org/2000/svg">
<g style="mix-blend-mode:color-dodge" opacity="0.25">
<path d="M29.8206 20.7032C29.1787 20.309 28.455 20.0687 27.7057 20.001V19.864C27.5092 16.3466 26.4894 12.9253 24.7291 9.87803C22.9688 6.83071 20.5176 4.24324 17.5747 2.32572C13.072 -0.294741 9.26852 0.887039 7.93818 4.79204C7.60341 4.527 7.25001 4.2866 6.88074 4.0727C3.19673 1.9318 0.212036 3.64451 0.212036 7.89205C0.338963 10.2125 1.00895 12.4702 2.16765 14.4819C3.32634 16.4935 4.94105 18.2025 6.88074 19.47L29.8206 32.7607C32.72 34.4734 35.0567 33.1033 35.0567 29.7635C34.9559 27.946 34.429 26.178 33.5191 24.6036C32.6093 23.0292 31.3421 21.6928 29.8206 20.7032Z" fill="#4B4C62"/>
</g>
</svg>
