<svg width="512" height="276" viewBox="0 0 512 276" fill="none" xmlns="http://www.w3.org/2000/svg">
<path d="M189.349 2.48361V61.3489L64.5898 118.453L189.349 177.601V235.286L0 145.455V92.9127L189.349 2.48361ZM318.195 55.7743C318.195 40.734 304.366 31.2829 293.362 38.803C282.359 46.3231 282.359 65.2255 293.362 72.7456C304.366 80.2657 318.195 70.8145 318.195 55.7743ZM273.076 101.985C235.763 81.5309 235.763 30.1168 273.076 9.66228C310.388 -10.7923 357.282 14.9147 357.282 55.8239C357.282 96.733 310.388 122.44 273.076 101.985ZM472.913 221.912C472.913 206.872 459.084 197.421 448.08 204.941C437.077 212.461 437.077 231.363 448.08 238.883C459.084 246.404 472.913 236.952 472.913 221.912ZM427.794 268.123C390.481 247.669 390.481 196.255 427.794 175.8C465.106 155.346 512 181.053 512 221.962C512 262.871 465.106 288.578 427.794 268.123ZM313.139 275.302L507.549 0.69812H441.121L243.471 275.302H313.139Z" fill="black"/>
</svg>
