<?xml version="1.0" standalone="no"?>
<!DOCTYPE svg PUBLIC "-//W3C//DTD SVG 20010904//EN"
 "http://www.w3.org/TR/2001/REC-SVG-20010904/DTD/svg10.dtd">
<svg version="1.0" xmlns="http://www.w3.org/2000/svg"
 width="280.000000pt" height="280.000000pt" viewBox="0 0 280.000000 280.000000"
 preserveAspectRatio="xMidYMid meet">

<g transform="translate(0.000000,280.000000) scale(0.100000,-0.100000)"
fill="#000000" stroke="none">
<path d="M1047 2702 c-32 -20 -53 -77 -43 -117 4 -15 18 -38 31 -51 l24 -24
371 0 372 0 29 29 c24 24 29 38 29 76 0 40 -5 52 -31 76 l-31 29 -362 0 c-324
-1 -364 -2 -389 -18z"/>
<path d="M1130 2196 l0 -244 -41 -103 c-22 -57 -55 -140 -74 -184 -27 -64
-162 -401 -315 -785 -10 -25 -50 -126 -90 -225 -83 -205 -96 -279 -66 -359 31
-82 133 -157 261 -192 73 -20 1187 -20 1260 0 175 48 268 146 268 281 0 68 -6
84 -220 630 -30 77 -66 169 -80 205 -14 36 -40 103 -58 150 -18 47 -44 114
-58 150 -96 249 -140 359 -152 388 -12 26 -15 86 -15 282 l0 250 -310 0 -310
0 0 -244z m522 -573 c41 -24 68 -81 68 -143 0 -185 -214 -220 -260 -42 -12 47
-1 106 27 149 34 51 110 68 165 36z m-420 -134 c40 -18 68 -70 68 -125 0 -63
-28 -110 -78 -131 -34 -14 -39 -14 -72 3 -137 75 -59 318 82 253z m388 -403
c69 -8 166 -24 215 -35 164 -37 140 -14 223 -217 153 -375 152 -373 127 -450
-27 -80 -94 -135 -204 -168 -82 -24 -1010 -24 -1092 0 -77 23 -120 47 -162 90
-72 75 -75 161 -10 314 23 52 64 151 93 220 28 69 57 137 63 153 13 30 32 38
147 63 201 42 399 52 600 30z"/>
<path d="M1054 909 c-42 -12 -84 -53 -84 -82 0 -49 69 -89 155 -89 64 0 94 10
133 45 80 74 -68 166 -204 126z"/>
<path d="M1600 905 c-64 -29 -83 -61 -64 -110 12 -30 83 -57 150 -57 71 0 119
21 144 64 18 33 3 66 -42 93 -42 24 -143 30 -188 10z"/>
<path d="M866 2195 c-32 -13 -79 -41 -104 -63 -52 -43 -117 -133 -127 -174 -6
-24 -3 -28 42 -48 29 -13 78 -24 123 -27 89 -6 166 16 230 67 l40 32 0 119 0
119 -72 0 c-54 0 -89 -7 -132 -25z"/>
<path d="M1800 2106 c0 -113 1 -116 28 -141 95 -91 279 -112 391 -44 l31 19
-26 52 c-39 78 -123 160 -197 194 -48 22 -81 29 -144 32 l-83 4 0 -116z"/>
</g>
</svg>
