<svg width="2500" height="2496" fill="none" xmlns="http://www.w3.org/2000/svg"><path d="M2499.04 1182.59c-.84-32.07-2.54-64.98-4.22-97.05-1.69-32.91-2.53-65.82-5.9-98.733-5.91-44.746-11.82-90.313-21.95-134.2-7.6-36.289-20.25-70.888-32.91-105.488-16.03-40.518-32.07-81.865-52.32-120.683-32.92-62.452-75.96-118.155-115.63-176.387-26.17-37.139-59.91-67.52-85.23-105.489-14.36-21.943-35.45-40.517-56.54-57.392-33.76-27.002-69.21-51.484-104.65-75.098-27.01-18.584-54.02-36.299-82.72-52.334-22.78-12.666-47.26-22.793-70.9-33.76-26.99-12.666-53.15-27.851-83.53-33.76-7.6-1.689-14.36-4.218-21.94-6.737-19.42-6.768-37.99-14.356-57.4-20.264-29.53-9.278-58.22-20.264-88.61-27.852-29.53-7.597-59.91-12.666-90.29-16.884-33.76-5.06-68.36-6.739-102.12-10.127-21.95-2.53-43.89-5.06-64.99-5.909-32.06-1.68-64.98-1.68-97.05-2.529-16.04-.84-32.91-2.53-48.95-1.69-24.47.85-48.94 3.38-73.44 6.758-23.61 2.54-47.24 6.748-70.04 10.127-27.84 3.37-55.69 5.059-83.54 8.438-26.172 3.379-53.164 8.437-79.326 12.656-9.287 1.69-18.575 5.078-27.852 6.748-20.254 4.229-41.357 5.918-61.621 12.666-36.279 10.967-72.568 23.633-108.018 37.129-32.91 13.506-64.98 27.852-96.201 44.736-32.07 17.715-62.451 38.819-92.842 59.082-28.691 19.395-57.382 39.659-85.234 61.602-27.002 21.094-52.324 44.727-76.797 68.359-13.506 13.496-24.472 29.532-37.138 44.727-21.094 24.473-42.198 48.105-62.452 73.418-16.875 21.103-32.08 43.047-48.095 64.99-28.711 38.818-53.174 80.176-75.957 121.524-9.288 16.875-17.725 33.759-26.172 50.634-12.657 25.323-26.153 49.805-37.969 75.957-8.437 17.725-15.195 37.129-20.254 56.543a6817.468 6817.468 0 0 0-34.6 124.903C3.515 978.35.976 1017.19.137 1055.16c-.85 33.75 2.529 66.67 5.908 100.43.84 8.43-4.219 18.56 5.908 25.31.84 0 0 3.38-.85 4.22-2.539 5.08 0 10.12 5.069 11.81 0 0 .84.85.84 1.69h-4.22c-2.538 7.6 5.909 13.51 2.53 21.95-.84 1.69 2.54 5.05 4.219 7.59 0 2.54-.84 5.91 0 8.44.85 7.6 4.228 15.19 4.228 23.63 0 5.91 5.059 12.66 6.739 18.57.85 2.54 0 6.75-1.68 8.44-5.059 5.9-4.219 10.97 3.379 14.35 1.69.84 4.219 4.21 4.219 5.9 0 5.08-1.69 10.13-2.54 15.2 1.69 1.68 2.54 3.36 1.69 5.05 0 2.54-2.539 5.08-1.68 6.76 6.739 13.5 9.278 28.69 10.127 43.88 0 3.38 1.69 6.76 3.37 10.98.85 0 3.378 0 5.068.84l-5.078 15.19c4.228-2.54 7.607-3.38 11.816-5.07 2.54 10.98 5.078 21.11 8.447 30.38.85 1.69 2.54 3.38 5.069 5.08-.85 1.68-.85 5.05-2.54 5.9 3.38 15.19 5.069 29.54 10.977 43.89.85 0 1.69-.85 2.53-.85-2.54-15.19-4.22-31.22-6.749-46.42v-5.06s1.69-.85 2.53-.85c.85 3.38 2.539 7.6 2.539 10.13 6.738 0 16.875 4.22 23.623 4.22.849-2.53 1.689-5.91 2.539-7.59-5.078-5.07-9.287-12.67-14.356-17.72 1.69 6.74 0 9.27 0 11.81-3.369-1.69-7.587-3.38-11.816-5.07 3.379-4.21 6.758-8.43 11.816-13.5 0-7.59-4.218-14.35-16.035-13.5 5.069-1.69 10.137-4.22 16.035-5.91.85 2.54 1.69 5.06 2.54 6.75 6.738-11.81-3.38-21.09-3.38-32.91.84-14.34-7.597-28.69-10.126-43.89-4.22-23.63-3.38-59.07-5.909-82.7 0-1.69-2.539-3.38-4.218-5.07-.85.85-5.078 11.82-5.909 12.67 2.53 20.25 5.06 40.51 6.739 60.76-.83 0-1.68 0-1.68.84-3.369-17.73-6.748-36.29-10.967-56.54-.84 5.9-1.69 8.43-1.69 11.81-2.538-.84-3.368-1.69-7.597-3.38 3.38 7.6 6.758 12.67 9.278 18.58-5.899-2.54-12.647-1.69-12.647-1.69v23.63c-8.437-8.45-10.976-15.19-15.195-21.09-1.69-6.76-2.54-13.52-4.219-20.27l2.53-.85c-.84-3.37-2.54-5.9-2.54-8.43a659.74 659.74 0 0 1-2.52-20.26c.84-.84 4.22-1.69 5.909-3.37l-6.758-10.12c6.758.84 10.977 1.68 15.195 1.68 0-1.68.84-2.53 0-3.37-8.437-7.6-2.539-14.36.84-21.1 1.69-3.39 7.598-4.23 9.278-7.6 6.757-12.66 17.734-22.79 17.734-38.82 0-7.6 2.53-16.04 3.37-23.64 1.689-14.34 3.378-28.69 4.228-43.03 1.68-18.56 0-37.14 4.218-54.86 6.739-29.537 15.186-59.078 24.473-88.609 6.738-21.094 14.346-41.358 22.783-62.451 12.666-32.911 24.473-65.821 40.508-97.061 22.793-45.566 48.955-89.453 74.268-134.18 16.035-27.851 32.91-54.004 50.634-81.025 16.885-26.162 33.76-53.164 53.174-77.637 27.002-34.599 56.543-66.67 89.453-95.371 33.76-30.371 65.821-61.601 102.119-89.453 47.266-36.289 97.051-68.359 150.225-96.211 43.037-22.783 87.764-40.508 132.5-57.392 28.692-10.967 59.912-16.016 89.453-25.313 33.76-10.977 67.52-16.035 102.958-16.885 22.79-.84 44.73-3.369 67.52-5.898 20.25-1.69 40.51-3.38 62.45-5.908a37.339 37.339 0 0 0-4.22 6.748c-9.28 13.506-19.41 27.002-28.69 40.507-7.6 10.977-16.03 22.784-23.63 33.76-13.51 17.725-27.85 35.449-40.51 54.014-19.41 27.851-37.14 56.543-57.391 84.394-20.254 27.002-42.198 52.325-63.291 78.487-27.852 36.289-54.014 73.418-81.866 109.707-25.322 34.609-52.324 67.519-76.797 102.119-21.943 30.381-41.357 62.451-62.451 93.682-31.23 46.416-62.451 91.992-93.681 138.398a7986.93 7986.93 0 0 1-74.268 105.498c-1.689 2.539-4.219 3.379-6.748 5.059-1.689 1.689-5.078 3.379-5.078 5.078-1.67 5.898-1.67 11.816-4.209 16.865-6.748 12.666-13.496 25.322-21.094 37.138-4.219 6.75-10.127 12.66-15.195 19.41-1.69-.84-2.539-1.68-4.219-1.68 3.379-8.45 17.725-13.51 10.977-26.167-4.219 6.747-8.448 12.657-12.666 19.407l-10.127 20.25c3.379 2.54 9.277 4.22 3.379 9.29-2.539 4.22-5.079 9.28-7.598 13.5.85 0 .85.84 1.689.84 2.53-3.37 5.069-5.9 7.598-9.27.84 0 1.689.84 2.529.84-2.539 8.43-7.597 16.03-11.816 23.63-3.379 6.75-11.816 11.82-17.725 16.87.85.84 6.758 3.38 7.598 4.22 2.529-3.38 3.379-1.69 5.908-5.06 1.69 2.54 4.219-1.68 5.069.84 2.529-3.37 5.058-5.9 5.908-8.43 3.369-8.44 8.437-15.2 16.875-18.56 3.379-1.7 5.908-4.24 8.437-6.77 25.322-26.16 51.485-51.46 74.268-79.321 35.449-43.047 67.519-87.774 101.269-131.661 14.356-18.554 31.231-37.128 46.416-54.853 1.69.85 3.379.85 4.229 1.689-1.69 17.725-3.379 36.289-4.229 54.014-2.539 31.221-4.218 62.451-6.748 94.531-.84 12.647 0 25.303-.84 37.969 0 3.369-2.539 5.899-2.539 9.277 0 8.435 2.539 17.725 2.539 26.175-2.539 31.22-5.908 61.6-8.447 92.82-.84 6.76 2.539 13.51 4.229 19.41-.85-.84-1.69-1.69-4.229-3.38 0 48.96 9.278 97.08 1.69 145.17 3.379-.85 5.068-1.69 5.068-3.38.84-5.91 2.529-11.81 2.529-17.72.85-5.06 0-10.13 0-16.04v-8.44c.85-15.19 4.219-31.23 2.53-46.41-1.68-16.89-1.68-32.91 1.689-48.96 1.689-6.73-.84-15.18 3.379-23.62v12.66c-.85 48.1.84 96.21-5.908 144.31-.84 4.22 2.529 11.82-6.748 10.97-.85 0-1.69 4.22-3.379 6.76-4.219 8.44 5.058 19.4-3.379 27.84-1.69 1.69 1.689 9.29 2.529 14.35 0 1.68.85 3.37 0 4.22-3.369 5.91-3.369 5.91 1.69 6.75.849 18.57 2.539 35.45 3.379 53.17h2.529c10.976-32.07 4.219-64.98 10.127-97.89.849 13.49 1.689 27 .849 41.34 0 21.95-.849 43.05-1.689 64.99 0 4.22-.85 8.44-1.689 12.66-2.54 11.82-3.379 23.63-7.598 34.6-3.369 8.44-1.69 21.1-1.69 31.23v32.06c0 .85 2.539 3.38 2.539 6.76.84 7.6-3.378 15.19-.849 23.63.849 1.69-.84 4.22-1.69 5.91-.839 2.54-1.679 5.06-.839 7.59l2.529 12.66c0 .84.849 1.69 1.689 3.37.85-3.37.85-5.91.85-6.74 14.346 1.68 6.738 14.34 13.496 21.1-3.369 1.68-5.908 2.54-5.908 3.37.849 3.38 2.539 5.9 2.539 9.28 0 7.59-.85 14.36-1.69 21.95 0 19.4-.849 38.82-.849 57.38 0 2.54.849 5.08.849 7.6 0 1.69-.849 3.38-.849 5.91v17.72h3.379c-1.69 2.54-3.379 5.06-5.908 7.59-.84 0-3.379 0-3.379-.84V1605.4h-12.657c-1.689 50.64 2.53 96.21-6.748 143.47-10.127.85-13.506 2.54-24.472 2.54-26.172 0-52.325 0-78.487.84-31.23 0-61.621.85-92.841.85-15.186 0-31.221 1.68-46.416 1.68-20.254 0-41.348-2.53-61.602-2.53-31.231 0-61.621 2.54-92.832 3.38-22.793.83-45.576.83-68.359 1.68-15.196.84-30.391 1.69-45.577 3.37-6.748.85-12.656 3.38-21.103 5.91-2.539 0-8.438-.84-13.496 0-8.438 1.69-16.035 6.76-24.473 8.44-12.666 2.54-16.035 5.91-14.355 18.57v8.44a25.518 25.518 0 0 0-5.909-4.22c-.839 0-1.679.84-1.679.84.84 2.54 2.529 4.22 3.369 6.76 3.379-1.69 7.598-5.91 10.976-5.91h11.817c-1.69 0-2.539 5.06-5.078 9.28a684.49 684.49 0 0 0 15.205-5.91c.84 2.54.84 5.91.84 6.76 11.816-.85 22.783-4.22 32.91-1.69 32.91 8.44 66.679 11.82 100.429 15.18 21.944 1.69 43.047 2.54 64.991 3.38 31.22 1.69 62.451 3.38 93.672 3.38 26.162 0 51.484-2.53 77.636-2.53 36.299 0 72.588 1.68 108.877 2.54 7.598 0 16.035-.86 24.473-.86h61.611c54.854-1.68 109.707-2.53 164.571-4.22 31.22-.84 63.281-2.53 94.521-3.36l96.194-2.54c37.15-.84 74.27-.84 110.56-1.69 27.86 0 54.87-.84 82.71-1.68 31.23-.85 63.3-3.38 94.52-5.07 16.89-.84 33.76-2.53 50.64-4.22 20.26-1.69 41.35-4.22 61.61-5.07 30.37-1.68 61.61-2.53 91.99-4.22 37.98-2.53 75.96-5.91 114.77-6.74 35.45-1.69 71.74-.85 107.18-1.69 31.23-.84 62.45-2.53 94.52-3.37l53.18-2.54s35.44-.84 53.16-2.53c30.37-1.69 60.76-5.07 91.14-5.91 19.42-.84 38.83 0 58.24-.84 31.23-.85 63.3-2.54 94.52-2.54 11.81 0 24.48 1.69 39.67 2.54-6.75 5.91-10.97 9.28-16.04 13.5 3.38.85 6.74 2.53 10.13 4.21 0 .85-.84 1.69-.84 3.38-4.22 0-8.44.85-12.67.85-1.68 4.22-3.37 5.9-5.06 14.36h15.19c-5.9 0-10.97 7.58-16.88 12.64.85.84 1.69.84 2.53 1.69-9.27-3.37-15.18-1.69-18.56 7.6 2.53.84 4.22.84 6.74.84-.83 2.54-1.67 5.08-2.52 8.44-.84 1.69-1.69 3.38-1.69 5.91l-2.54-2.53c0-1.69 0-3.38-.83-5.07-5.08 5.08-12.67 8.45-8.45 19.41-3.37 1.69-7.59 3.38-11.82 5.91.85 1.69 2.54 3.38 3.38 5.91-7.58.84-15.18 2.54-13.49 11.82 3.37.84 6.74 2.54 9.28 3.37-4.22 1.69-8.44 4.21-12.66 5.9-.85 1.69-1.69 5.91-3.38 6.76-11.82 2.54-5.06 6.75-1.69 10.97-2.54 1.69-5.06 3.38-7.59 4.22 2.53.85 4.22 1.69 5.91 3.38-2.54 1.69-4.23 2.54-5.91 3.38 1.68.84 4.22 2.53 5.06 2.53-3.38 2.52-7.6 5.9-12.66 10.12 0 1.69 0 2.54.84 4.22-3.36 3.38-6.74 6.75-10.12 11.82-3.37 5.06-5.06 11.81-9.28 16.87-17.72 19.42-30.39 42.2-53.17 57.39-8.44 5.91-16.04 13.5-23.64 21.1-15.18 14.35-28.69 30.38-44.72 43.88-21.1 17.73-43.04 33.76-65.83 49.81-27.84 19.39-55.7 38.81-83.55 57.37-15.19 10.13-32.07 17.73-48.1 27.01-16.04 9.28-31.22 17.73-47.27 27.01-10.13 6.75-19.4 16.03-30.38 21.1-27.85 11.82-57.38 21.94-86.07 32.91-2.54.84-4.22 1.69-6.76 2.54-21.1 9.28-41.35 19.4-62.45 27-19.42 6.75-39.66 11.82-59.92 16.04-6.75 1.69-14.36 0-21.94.84-14.35 2.53-28.71 5.9-43.05 7.59-37.12 5.08-74.26 8.44-111.39 13.51-21.95 2.54-43.05 6.75-64.99 9.28-15.19.85-31.22-.84-46.42-.84-10.96 0-22.78 2.54-33.76.84-17.71-2.53-35.45-6.74-53.16-10.13-4.22-.84-10.13-2.53-13.51-.84-6.75 3.37-12.65-1.69-19.4 0-4.22.84-8.44-2.53-12.67-2.53-3.37-.85-7.59.84-11.81 0-9.28-2.54-17.72-5.91-27.85-5.07-10.12.85-20.25-4.22-31.23-6.74-15.18-3.38-29.53-6.76-44.723-10.13-5.908-1.69-10.967-4.22-16.875-7.6-1.69.84-4.229 2.54-7.598 2.54-14.355-2.54-28.691-3.38-42.197-8.45-11.817-4.22-22.783-10.13-35.449-8.44-3.37.84-5.909-.85-9.278-.85-2.539-3.36-5.078-10.12-7.597-10.12-16.895.85-27.012-13.5-41.358-17.72-7.597-2.54-13.496-10.97-21.094-13.5-18.564-7.6-33.759-23.64-54.853-26.17-6.758-.85-13.506-4.21-21.104-6.75 2.53 3.38 4.219 5.9 6.739 8.44l-1.68 1.68c-22.783-13.49-45.566-27-68.359-39.64-3.37-.86-5.899-4.23-8.438-5.92l-22.783-15.2c-2.539-1.69-7.598-4.22-7.598-3.38-5.058 5.92-10.127.85-13.496-.84-22.793-16.03-48.955-26.16-70.898-43.88-9.278-7.59-20.254-12.66-27.002-21.95-11.817-14.34-26.172-24.47-42.197-32.91-12.657-6.74-24.473-14.34-36.29-21.94-5.908-4.22-11.816-9.28-11.816-18.56 0-5.91-2.539-11.81-10.127-8.44-3.379-5.07-6.748-10.98-10.967-12.67-10.127-4.22-16.894-11.81-24.482-18.55-7.588-6.76-13.496-16.05-22.783-19.42-16.875-6.75-27.002-21.09-37.129-32.91-23.633-27.86-44.737-58.24-66.68-87.78-1.68-2.53-5.059-4.22-7.588-6.74l-.849.84c4.218 8.44 8.437 16.04 12.666 24.47-.85.84-2.539 1.69-3.379 2.54-5.078-5.92-10.977-11.81-16.035-17.73-.85.85-1.69 1.69-2.54 1.69l60.772 96.21c5.059 7.6 9.277 15.18 14.346 22.78a11.444 11.444 0 0 1-3.379 2.54c-9.278-1.69-17.715-8.45-21.944-16.04-7.588-13.5-16.035-21.94-32.91-20.26-1.689-5.91-3.379-12.65-4.219-18.55-3.378 0-5.908 0-11.816-.85 11.816 18.56 21.943 34.6 32.91 53.16-4.219-2.53-6.748-4.22-8.437-5.06 15.195 16.04 26.162 36.29 45.576 46.42 4.219 19.4 26.162 28.69 31.221 47.27-4.219-.85-7.588-1.7-11.817-2.54-6.748-8.44-14.355-16.88-21.933-26.17 1.679 5.91 4.218 10.97 7.588 15.2 10.126 12.66 19.414 25.31 31.23 36.29 4.219 4.22 10.127 5.91 10.127 13.49 1.689-1.69 3.379-2.52 6.738-4.21-1.679 3.37-2.519 5.07-3.359 7.59 3.369 0 5.908.84 8.437.84 1.69 5.08-.849 12.67 9.278 10.98.849 0 1.689.84 2.539 1.69 4.218 10.97 10.967 10.97 20.254 6.75 1.689-.84 5.908 0 6.738 1.69 4.228 9.27 10.137 10.12 17.734 3.38 0 4.21.84 8.43.84 11.81h3.379c0-1.69-.84-4.23-.84-8.45 4.219 3.38 6.738 5.08 8.438 6.76 8.437 11.82 16.035 22.79 27.851 32.06 16.035 13.51 30.371 27.85 45.567 40.53 29.541 24.46 62.451 44.73 95.371 63.28 40.508 22.78 79.326 47.27 120.683 69.2 49.786 26.17 102.959 43.89 157.813 56.55 20.254 4.22 39.668 8.44 59.922 13.5 17.724 5.08 35.449 12.67 53.159 16.89 27.02 5.9 54.87 10.96 81.87 16.03 5.91.84 11.82 1.69 18.55 2.54v1.68c7.61 0 16.9-3.38 18.59-.85 4.22 6.76 7.59 3.38 12.65 2.54 5.91-1.69 12.66-1.69 19.41-1.69 23.63.84 46.42 5.91 70.05 4.22 5.07 0 12.66-4.22 16.88 4.22 1.69-.85 2.53-1.69 4.22-2.53 3.37-.85 7.6-.85 10.97-1.69v1.69c-1.69.84-3.37.84-6.75 1.69 4.22.84 6.74 1.68 9.28 2.54-1.68 1.67-2.54 1.67-4.22 2.51-1.68.84-4.22 1.69-7.59 4.22 30.37 5.91 59.07 6.76 84.4 0v-5.06h3.36c0 1.68.85 3.37 1.69 5.06 38.82 3.38 76.8-1.69 113.09-14.34 3.38 4.22 5.91 10.12 10.98 1.69 1.69-2.53 5.9-3.38 9.27-4.22 7.6-1.69 16.89-5.07 23.64-2.53 7.59 2.54 10.12-4.23 16.03-4.23 9.62.03 19.23-.81 28.69-2.53 5.07-.84 10.13-3.38 16.04-5.06 0-.85 0-1.69-.84-2.54-5.91-.84-12.66-1.68-17.73-1.68 10.13-5.06 19.42-9.27 28.7-13.5 0 .84.85.84.85 1.69-2.54.84-4.22 4.22-7.6 4.22h11.81c-2.54 0-5.9 7.59-10.12 12.65 30.37-7.6 58.23-14.34 85.23-21.09v-1.69c-3.37.84-5.91.84-8.44 1.69-.84-17.73 18.56-11.82 25.33-21.94-8.45 2.53-16.9 5.05-25.33 6.74v-1.69c28.7-12.65 58.24-25.31 86.92-37.97 0 .85.86.85.86 1.68-5.08 3.38-10.13 5.91-17.73 10.13 5.06.85 8.44.85 10.97 1.69 0 2.54 0 4.22-.84 5.08 14.35-.86 10.97-13.52 15.19-21.11 2.53.84 5.9 2.54 8.44 1.69 7.59-1.69 14.35-4.22 21.94-6.74 8.44-2.54 16.88-5.08 25.32-8.46 13.5-5.91 26.16-13.5 39.67-20.25 2.53-.84 6.73 0 10.12 0 2.53 0 4.22-1.69 5.91-3.37 3.37-2.54 6.74-7.6 9.28-6.76 11.82 1.69 20.25-2.53 23.63-13.5.85 0 .85-.85 1.69-.85 4.22-3.37 8.44-6.73 12.66-9.27 18.57-10.14 36.29-20.26 54.86-30.39.84-.84 2.53 0 4.22 0 2.53 0 5.91 0 7.59-.84 10.97-5.07 21.09-10.97 31.23-16.88-2.54-.85 0-1.69-8.44-2.54v-1.69c8.44-1.68 10.97-2.53 16.04-4.22l-1.69-1.68c21.94-21.94 49.79-37.97 70.88-56.54 4.22.84 5.91 1.68 8.44 1.68.85-2.53.85-5.06.85-6.74 3.37-4.23 6.74-9.29 10.97-12.66 18.55-16.89 38.83-31.23 55.7-48.96 24.47-24.47 48.11-49.78 70.05-75.95 20.25-23.63 40.51-47.26 57.38-73.42 23.64-36.29 43.89-73.42 64.98-111.4 15.2-27.01 28.7-54 43.89-81.03 1.69-2.52 5.07-5.89 7.6-5.89 22.78-2.54 45.57-4.23 67.52-6.76 5.06-.84 10.96-4.22 16.03-6.74-2.54-4.23-4.23-9.3-6.76-13.52-3.36-5.06-8.43-9.27-11.81-14.34-3.37-4.22-5.9-9.28-8.44-14.35-2.54-4.22-5.06-7.59-7.6-11.81-5.06-9.28-10.12-18.56-14.35-28.69-.83-2.54-2.52-6.76-1.68-9.28 15.19-32.91 21.09-68.36 35.45-101.27 14.34-33.77 18.55-71.75 25.32-108.04 5.91-34.6 9.28-69.2 13.5-103.81 2.53-24.47 5.9-48.1 6.75-72.58 5.06-38.81 3.37-75.09 2.53-111.39ZM377.363 2124.42c-5.889-6.73-10.957-14.34-16.865-21.09l2.529-2.54c9.278 10.14 18.574 20.25 27.852 31.23-5.059-2.53-10.967-4.22-13.506-7.6h-.01Zm13.516 7.6c2.529-.84 5.068-.84 7.597-1.69 2.53 4.22 4.219 9.29 6.739 14.36-11.817-.85-17.715-5.92-14.336-12.67Zm877.691 348.55v-2.53c16.04-1.69 31.23-3.38 47.27-5.06v2.54c-15.66 2.51-31.43 4.2-47.27 5.05Zm212.68-21.95c-11.82 2.54-24.47 4.22-36.29 5.91-4.22.85-9.28 5.08-10.97-2.53-1.69.84-3.37.84-5.07 1.69 4.22 12.66 14.35 2.54 22.79 7.6-18.57 2.54-36.29 4.22-54.01 6.75v-1.69c5.06-.84 10.97-1.69 16.04-2.53v-2.53c-8.45-.85-16.89-1.69-25.32-1.69-2.54 0-5.91 3.38-8.44 4.22-3.38.84-6.76 1.69-10.98 1.69-14.35.84-28.69.84-42.19 1.69-.84 0-2.54-.85-3.37-.85v-2.53c56.54-7.6 112.24-15.2 168.79-22.78.84 1.67.84 3.36 1.68 5.05-5.06 0-8.44 1.69-12.66 2.54v-.01Zm12.66-8.43c19.41-2.53 37.13-4.22 55.7-6.74-38.82 10.95-51.48 12.64-55.7 6.74ZM758.838 746.289c27.012-37.139 54.853-74.277 81.865-112.256 8.437-10.967 15.186-22.783 23.633-33.75 2.529-3.379 5.898-5.068 10.127-8.447l-.85-1.68c3.379-4.228 6.738-7.597 8.438-10.976 4.218-6.739 6.757-14.346 10.127-21.944.849-1.689 3.379-3.369 3.379-3.369 11.816 5.899 11.816-6.758 16.035-10.976a596.616 596.616 0 0 0 21.943-26.163c5.059-6.738 10.127-12.656 14.346-20.253.84-2.53-1.69-6.739-2.539-10.127h-2.52c2.529-1.69 5.059-4.219 7.588-5.909.85 0 .85 0 1.69-.839 5.068-7.598 10.126-15.196 15.195-21.944 10.127-13.506 21.094-27.012 32.905-38.828-1.685 4.219-3.374 8.447-5.054 11.816.84 0 .84.85 1.68.85 10.124-13.506 21.094-26.162 31.234-39.668-.85-.84-1.69-1.689-2.54-1.689-4.21 4.218-7.59 8.437-11.82 12.656-.84-.84-1.68-1.68-2.54-1.68 8.46-10.976 16.9-21.943 25.33-34.609 1.69 2.539 3.38 5.908 6.74 12.666 3.39-8.447 6.77-14.356 9.3-20.254-2.54 2.539-5.91 5.059-8.44 7.588l-2.54-2.529 15.2-22.784c16.03-22.793 32.07-46.416 48.1-69.209 5.91-8.437 13.51-15.185 18.56-23.623 16.04-32.07 41.37-57.392 60.77-86.933 4.23-5.899 10.13-10.967 15.19-16.035 4.22-5.059 7.6-3.37 10.98.849 22.78 28.692 45.57 58.233 68.35 86.924 16.89 21.104 33.76 41.357 49.8 63.291 19.41 27.012 37.97 54.014 57.39 81.025 21.94 31.221 43.89 62.452 64.98 94.532 32.07 47.246 62.45 94.511 94.52 141.767 23.63 34.61 47.27 68.36 70.05 102.969h-43.05c-39.66-.85-80.17-4.229-119.83-2.539-54.02 2.539-108.87 8.437-162.89 12.656-68.36 5.908-137.56 6.758-205.91 6.758-24.48 0-48.96 3.369-73.44 5.059-29.529 1.689-58.22 3.378-87.762 4.228-34.599 1.68-68.359 2.539-102.958 3.369-19.405.85-39.668 0-60.762 0v.01Zm968.002 388.201v7.6c-.84 0-1.69.84-3.38.84-3.37-11.82-6.75-24.47-10.97-36.29-8.44-24.47-17.72-48.94-32.91-70.89-16.89-23.63-32.07-48.104-48.96-72.576-4.21-5.908-10.12-10.977-15.18-16.035-17.73-19.414-35.45-39.668-58.23-54.004-33.76-21.094-68.36-38.828-105.5-54.024-10.13-4.218-19.41-9.277-29.53-15.185h20.25l144.32-2.53c31.22-.849 61.6-.849 92.83-2.539 7.6 0 11.82 2.539 16.04 9.287 7.59 12.657 15.18 25.313 23.62 37.989.85 1.67 2.54 4.209 2.54 6.738 0 18.565 0 37.988.84 56.543.85 19.414 2.53 37.988 3.38 57.393 0 19.403-1.69 39.653-.85 59.913.85 28.71 1.69 58.23 1.69 87.77ZM818.75 851.768c39.668-1.69 77.637-4.229 116.465-5.909 30.371-1.689 61.601-2.539 91.985-4.218 12.66-.85 24.48-1.69 37.14 0-13.51 6.748-27.01 13.496-38.82 21.943-15.2 10.117-29.544 23.633-44.739 34.6-15.185 10.966-28.691 24.472-41.348 38.818-16.035 19.414-33.759 36.289-50.634 54.853-11.817 13.505-25.323 26.175-35.449 40.505-14.356 18.58-27.002 38.83-40.508 59.93 4.218-80.18 9.277-159.507 5.908-240.522Zm551.09 811.862c-27.01 6.75-54.85 14.36-82.71 17.73-23.63 3.38-48.1 2.54-72.57 2.54-21.94 0-43.05-.85-64.99-2.54-24.47-2.53-48.95-5.07-72.58-16.04-20.25-9.28-41.35-17.72-61.6-27.85-20.253-10.13-40.527-21.94-55.703-40.51-10.976-13.5-26.172-24.47-39.668-36.29a39.774 39.774 0 0 0 17.725 24.48c-4.219 5.07-10.127 2.54-18.564-10.97-2.539 1.68-5.079 2.54-6.758 3.37 2.539-5.91 5.068-11.81 7.597-16.88-3.369-6.73-7.597-14.34-10.966-21.09a691.907 691.907 0 0 1-19.414-33.76c-1.69-2.54-1.69-5.07-3.379-7.6-4.219-5.07-8.438-10.12-11.817-15.19-6.748-10.13-12.656-21.1-21.093-31.22 0 2.54.839 5.06.839 8.43-.839 0-1.679.84-1.679.84l-17.725-43.03c-.85 0-.85 0-1.689.85l15.195 55.69c-.85 0-1.69.85-2.539.85-2.539-3.38-5.059-6.76-6.748-10.98-1.69-6.74-6.748-6.74-10.977-4.22-2.539 1.69-4.219 7.6-3.369 10.13 5.908 14.36 12.656 28.69 19.404 43.05 1.69 5.06 3.379 9.28 5.909 14.35.849 1.68 3.379 3.36 3.379 5.9 3.378 6.75 5.908 13.5 10.126 19.41 7.598 10.12 16.036 20.25 23.633 30.38 7.598 10.12 14.346 21.1 21.094 31.23.85 1.69 3.379 1.69 4.219 2.54 4.228 12.64 18.574 21.93 28.701 16.87 2.529 19.41 23.623 26.17 32.07 44.73a390.9 390.9 0 0 1-24.482-10.98c-.84.85-.84 1.69-1.68 3.38 10.127 5.06 20.254 10.13 29.531 16.04 8.438 5.05 16.885 10.12 24.478 16.03 10.13 9.28 21.94 14.36 36.29 17.73-.85-2.54-1.69-3.38-1.69-3.38 22.37 10.38 44.6 21.07 66.67 32.07-87.77 1.69-181.441 3.38-278.511 5.06 0-16.04-.83-31.23-.83-47.26 0-6.74 1.689-12.66.839-19.41-2.539-38.82-2.539-77.64-7.587-115.62-5.079-40.51-5.079-80.18-4.219-120.68.84-21.95-.85-44.73-1.69-66.67 0-29.54 0-58.24.84-87.78 0-4.22 1.69-7.59 3.379-11.81h2.529c.84 1.69 0 4.22 1.69 5.08 2.529 2.51 6.738 6.73 8.437 5.89 5.069-3.38 12.657-6.75 14.346-11.81 4.219-10.13 5.908-21.1 5.908-31.23 0-7.59 3.379-12.66 6.739-17.73 1.699-2.53 2.539-5.06 4.238-8.44-3.379-2.52-6.758-4.21-10.977-7.58 3.379-9.28 2.53-20.27 15.196-25.33 1.689-.85 1.689-5.06 2.529-7.59.84-6.74 1.689-14.35 2.529-21.1 1.69 2.54 2.529 3.37 4.219 5.06.85-1.69 1.689-2.53 1.689-2.53 0-3.38-.839-10.12 0-10.12 10.127-1.69 5.909-12.66 10.977-17.73.84-.84-.85-3.38-.85-5.06 0-1.69 0-4.23.85-4.23 11.807-2.53 10.127-15.18 17.715-21.09 2.539-1.69 3.379-4.22 6.758-8.44 6.738 11.82-5.078 17.73-5.909 26.17 14.346-8.44 18.555-28.7 10.127-34.61 3.379-2.53 6.739-5.9 9.278-9.27 9.277-10.14 19.414-19.43 27.851-29.55 5.908-7.6 9.278-16.88 15.196-24.48 3.378-4.21 10.127-7.59 15.185-10.12 15.195-8.44 29.539-17.73 38.829-32.073 1.69-1.69 4.22-3.379 6.74-5.059 2.54-1.689 7.6-1.689 8.44-4.228.85-1.68-1.68-5.899-3.37-8.438 3.37-1.689 6.75-5.059 13.5-8.437-2.54 5.078-3.37 8.437-5.06 11.816l4.22 4.219c7.6-5.909 19.42-12.657 27-17.725 0-.84-4.21-4.219-4.21-4.219-5.06 2.539-12.66 6.758-20.26 10.127 1.69-2.529 1.69-4.218 2.53-5.058 11.82-7.598 23.63-15.196 36.29-21.094 29.54-13.516 59.08-27.012 88.61-39.678 5.07-2.529 11.82-.84 17.73-.84 2.53 0 4.22 0 6.76-.839 13.49-4.219 27-8.438 40.5-11.817a70.283 70.283 0 0 1 18.56-2.529c25.33.84 50.64.84 75.96 2.539 10.97.83 21.1 3.369 31.23 6.738 12.66 4.219 26.16 10.127 37.97 16.035a416.649 416.649 0 0 1 41.36 25.323c24.47 16.035 47.26 33.75 71.73 48.105 23.63 14.356 42.19 33.752 57.39 55.692 18.56 26.17 39.67 49.81 48.11 81.87l12.65 55.7c2.53 10.13 8.44 20.25 5.91 32.07-4.22 21.09-7.6 43.04-10.96 64.14-1.69 8.44-3.38 16.88-2.54 25.31 1.69 26.18-8.44 48.95-18.57 72.58-3.38 7.6-8.44 15.2-12.65 23.63.84.84 5.9 3.38 6.73 3.38l7.61-15.19c.84 0 .84 0 1.69.85-4.22 11.81-7.6 24.47-11.82 36.29-10.12 26.17-20.25 53.16-32.91 78.48-6.75 14.36-18.57 26.17-27.01 39.66-8.43 11.82-15.18 24.47-23.63 35.45-7.59 9.29-15.19 18.56-25.31 25.32-22.8 16.88-46.42 33.75-70.9 47.27-15.19 9.28-32.91 14.33-49.79 18.55Zm-449.821-44.72-.839.84c-1.69-.84-4.219-1.69-5.909-3.37l-20.254-30.37c-1.689-2.54-2.539-5.08-1.689-8.46a718.162 718.162 0 0 0 28.691 41.36Zm524.931 115.62c37.98-16.04 69.21-38.83 97.9-64.99 4.22-4.22 8.44-8.44 13.51-11.82 35.44-21.94 61.6-52.32 85.23-86.08 27-38.82 44.73-82.7 66.67-124.05 1.69-3.38 3.38-6.76 5.07-9.28-1.69 96.2 9.28 190.72 21.93 286.08-95.36 3.38-192.41 6.76-290.31 10.13v.01Zm855.76-25.32c-.85 1.69-2.54 3.37-3.38 5.06-.85-1.69-.85-4.22-1.69-7.59-5.07 13.5-16.03 6.75-23.63 6.75-45.56.84-91.99.84-137.56.84-43.88 0-88.61 0-132.5.85-14.35 0-29.54 3.37-43.88 4.22-34.6 1.69-69.2 2.53-103.81 3.37-2.54 0-5.06-4.22-9.28-7.59-.84 1.69-2.54 4.22-5.08 7.59-.83-1.68-2.52-3.37-4.21-5.9-.7 2.3-1.55 4.55-2.54 6.74h-2.52c-1.68-11.81-5.07-22.78-5.07-34.59 0-25.33 2.54-50.64 3.39-75.96.84-11.82 0-22.79 0-33.76 3.37 2.54 5.9 4.22 9.27 6.76 1.69-3.38 3.38-5.91 5.07-8.45 0 0-1.69-.84-3.38-2.53 1.69-.84 3.38-2.53 3.38-3.37.85-2.54 2.53-5.07 2.53-6.76 0-5.91-1.68-10.96-2.54-16.03.86 0 1.7 0 2.54-.84l5.07 25.31h2.53c-3.37-5.91 7.6-10.97-1.69-17.72-.84-.84.85-5.91.85-8.44-2.54-5.06-4.22-10.13-6.76-16.88.85-.84 3.38-1.69 5.91-2.53-3.37-1.69-5.91-3.38-8.44-4.22 8.44-7.59 8.44-11.81.85-20.26 1.68-.84 3.37-.84 3.37-1.68 0-7.6 0-15.19-1.69-22.79-1.68-8.44 2.54-18.56-10.13-23.62.79 2.4 1.93 4.68 3.38 6.74 0 0-2.54.84-5.08 2.54-10.95-10.13-4.21-23.63-6.73-38.83 5.9 1.69 10.12 3.38 14.34 5.06-1.69-5.9-5.91-12.65-8.44-20.25h-3.38v-55.69c0 .84 5.91.84 9.28 1.68 0-.84.85-1.68.85-2.53-2.54-3.38-5.91-6.74-9.28-10.97l1.69-1.69c-6.75-8.44-3.37-20.25-3.37-22.78v-59.09c8.43 8.44-4.22 19.42 8.43 24.48v-8.44h-.84c-.85-12.66-.85-25.31-1.69-37.98h-1.69c-.84 1.69-.84 2.54-1.69 4.22h-1.69c1.69-66.67 3.38-133.34 5.07-201.7 8.44 10.98 17.73 21.1 23.64 32.07 19.4 35.45 44.72 65.83 68.36 97.9 20.25 27.85 38.81 58.23 57.38 86.93 22.78 34.6 44.72 69.19 67.52 103.8 16.95 26.21 34.39 52.09 52.32 77.64 16.04 22.78 32.91 44.73 49.8 66.67 14.34 19.41 29.53 38.83 43.87 58.23 16.89 23.64 33.76 47.27 50.65 70.05 8.44 11.82 17.71 23.63 27 35.45 5.06 6.75 12.66 11.82 17.73 16.04-.85 0-1.69 0-3.38-.85 2.53 3.38 4.22 5.9 5.9 7.59 9.28 5.06 10.13 10.13 5.07 17.73Zm43.04-210.99v-5.91c0 1.69.84 4.22 0 5.91Zm28.69-372.17c-.84 0-5.91-5.07-6.75-5.91-.85 2.54 0 5.06-1.69 8.43-.84-2.53-6.74-1.69-6.74-4.21-.85 11.81 5.05 23.63 4.21 35.44 2.53-1.68 12.66-2.53 15.19-5.06.85.85 2.53 1.69 3.38 1.69-16.88 12.65-12.66 25.32-5.08 39.66 1.7 3.37 6.77 10.13 1.7 16.88-1.69 1.69.85 6.76 1.69 10.98h2.53v1.67l-7.59 2.54c-1.69-2.54-11.82-7.59-11.82-11.81v43.03c8.44 2.54 8.44 14.36 11.82 20.26 1.68-2.53 2.53-4.22 3.37-6.74l.85.83c-.85 5.08-1.69 10.13-3.38 15.2-1.69 7.59-3.38 14.35-4.22 21.94 0 .84 1.69 2.54 1.69 3.37-9.29 21.1-4.22 44.73-7.6 66.68-2.54 16.03 0 32.91-1.69 49.78-1.69 14.36-5.05 29.54-8.43 43.89-.84 2.54-2.54 3.38-6.75 5.08 1.68-10.14.84-16.9-.85-26.17-.84 0-11.82-5.91-12.66-5.91 0 11.81 6.74 27.85 9.28 41.35-2.54-.84-12.66-6.74-13.5-6.74-1.69 10.11-1.69 23.63-2.53 34.59-.84 8.43-8.44 16.03-9.28 25.32 0 5.06 5.91 8.44 5.06 16.87h6.75c0-16.87 7.6-32.07 7.6-49.79h2.53c.84 1.69 3.38 3.38 2.53 4.23-1.69 9.28-5.06 19.4-4.22 28.69 0 5.06 4.22 10.13 2.53 16.03-1.69 5.06-2.54 10.13-3.37 17.72-.85-4.22-1.69-5.9-1.69-8.44-.85 0-8.44-.84-9.28-.84-.84 5.06 5.9 10.13 5.06 14.36-.85.84-1.69.84-3.38 1.68l-27.85-40.51c-21.94-32.07-43.88-64.14-65.83-97.05a201.453 201.453 0 0 1-15.18-25.32c-26.17-44.73-54.86-87.78-86.93-129.12-24.48-31.24-43.88-65-66.68-97.91-21.09-31.22-42.19-61.61-63.29-92.83-7.59-10.12-16.87-19.41-23.63-30.37-21.94-34.61-41.35-70.057-63.29-104.657-18.57-28.701-38.83-56.543-58.23-84.394a903.95 903.95 0 0 1-20.26-29.541c-.85-1.69-1.69-3.379-1.69-5.908-1.69-18.555-3.38-37.129-4.22-54.854 0-16.885 1.69-33.76 1.69-51.484v-15.186c0-4.218.84-7.597.84-11.816.84-.85 1.69-2.529 2.53-3.379-24.47 0-49.78-.84-74.26 0-16.03.85-24.48-5.908-35.45-17.715-32.06-36.299-55.7-77.637-83.55-116.465-26.17-37.138-53.16-73.427-80.17-109.717-21.94-29.541-43.88-58.232-65.82-87.773-24.48-33.75-48.11-67.51-73.44-101.27-30.37-40.507-61.59-81.015-92.82-121.523-14.36-18.574-30.39-36.289-46.42-55.703 10.97 1.69 21.09 3.379 31.23 4.219l40.51 2.539c30.37 2.539 60.76 4.209 91.14 8.427 25.32 3.379 50.64 8.448 76.8 12.666 55.7 9.278 110.54 24.473 163.73 42.198 31.22 10.127 61.6 23.633 91.98 36.289 68.36 27.851 133.35 61.601 197.48 97.051 20.26 10.966 32.07 28.691 47.27 44.726 21.94 22.793 43.88 45.576 64.98 69.209 24.47 27.852 47.26 56.543 70.89 85.235 21.09 25.322 43.04 50.634 64.14 75.957 6.75 7.597 11.81 16.875 17.72 25.312 13.51 20.254 28.69 39.668 40.51 61.621 8.45 16.026 13.5 34.59 19.41 52.315 8.44 26.171 16.88 51.484 25.32 77.646a693.821 693.821 0 0 1 15.19 59.912c3.38 13.506 2.53 27.852 6.74 41.358 5.08 17.724 0 37.129 5.08 54.853.84 1.69 1.69 4.219 2.53 5.908 3.38 3.379 5.9 6.748.85 11.817-.85.84-.85 4.218 0 6.748 1.68-1.68 2.53-3.369 4.21-5.908 0 1.689.84 2.539.84 3.378 0 3.379-.84 6.749 0 10.127 0 1.69 1.69 4.219 2.53 5.909 1.69-1.69 3.38-2.53 6.76-5.059 7.59 28.692 8.44 57.382 8.44 86.922 0 27.85 5.06 55.7-6.75 82.72 2.53-9.3-3.38-17.74-.85-26.18v.01Z" fill="#DD3735"/><path d="M1835.95 1457c.84 0 1.69.85 1.69.85l-.85-.85c0-.84 0-.84-.84 0Zm133.34 833.82c-9.28 6.75-18.57 12.66-30.38 15.19-.84-.84-.84-1.69-1.69-2.53 9.28-5.91 19.41-11.82 28.7-17.73.84 1.69 2.53 3.38 3.37 5.07ZM386.904 1147.28c9.278-11.82 18.565-23.64 28.692-35.44.84.84 7.597 2.53 8.437 3.36-9.277 11.82-21.943 27.86-31.22 40.51-1.69-1.68-4.219-7.59-5.909-8.43Zm-239.677 413.53c-6.758-14.35-13.506-29.54-20.254-43.89.84-.84 6.748-3.38 7.588-3.38 9.287 13.51 13.505 29.55 20.253 43.89 0 0-6.748 3.38-7.587 3.38Zm215.205-405.1c-5.069 7.6-10.127 16.04-15.196 23.64-.84-.84-10.127 3.37-10.966 2.52 5.058-7.58 17.714-21.09 22.783-28.69.84.85 1.689 1.69 3.379 2.53ZM1878.98 2325.42c.85 0 .85-.85 1.69-.85 5.91.85 12.67 1.69 19.42 1.69-10.98 7.6-17.73 6.76-21.11-.84ZM364.111 1191.16c.85-2.53 2.539-5.07 4.219-7.6 1.69 0 4.229-.84 4.229-.84 3.369-5.9 3.369-10.12 6.748-15.19-.84-.84-1.69-.84-2.53-1.69-5.068 3.38-10.127 7.6-15.195 10.98 1.69 1.69 1.69 2.53 1.69 4.22-6.749-.84-9.288 2.52-12.657 11.81-.849 2.53-5.068 3.37-9.287 6.75-.84 1.69-1.689 5.91-3.379 10.13l.85.85a12.648 12.648 0 0 1-4.219 2.53c-5.068 5.05-10.976 9.28-16.035 14.34-.85 2.53-1.69 5.07-1.69 7.6 5.909-5.91 16.036-16.89 23.633-23.63l.84.84c3.379-5.06 5.908-10.13 9.287-15.19.84.84.84 1.69 1.69 2.53-2.539 6.75-5.069 14.35-7.598 21.1-1.689.84-4.219 2.53-4.219 1.69-3.379 2.53-5.908 5.9-9.287 8.44l-15.185 10.13c-8.448 7.59-16.885 14.34-26.162 21.94-5.909 9.28-11.817 17.72-18.575 28.69 10.127-2.53 12.666 1.69 11.817 10.13 11.816 1.69 12.656-7.6 16.035-14.35.849-1.69 1.689-5.07 3.379-5.91 7.597-6.74 16.035-12.65 24.472-19.41 1.69-1.69 1.69-5.06 1.69-7.6 0-.84-4.219-.84-6.748-1.68 7.588-8.44 18.564-22.79 26.162-32.07 4.219-2.54 8.437-5.91 8.437-8.44-.849-9.28 5.059-11.81 11.807-15.19-3.369-2.53-4.219-5.07-4.219-5.91Z" fill="#DD3735"/><path d="M380.996 1181.87c-3.379 5.91-6.748 10.98-10.127 16.89l-5.068-2.54c-3.369 19.41-15.186 36.3-27.002 39.67 3.379 1.69 6.748 3.38 9.287 2.53 2.529-.84 4.219-5.06 5.899-7.59l22.793-32.92 7.597-12.66-3.379-3.38ZM99.961 1552.36c4.219 0 8.438.85 13.506.85 0-3.38 4.219-2.53 4.219-5.91h2.529c0 4.22.85 7.6.85 11.82H103.34c-.85-.85-4.219-5.91-3.379-6.76Zm-6.748-38.82c-2.53-2.52-6.758-5.05-6.758-7.59-.84-3.37 1.69-7.59 4.229-11.81 1.68 5.9 2.529 10.97 4.219 16.88-.85.84-1.69 1.69-1.69 2.52Zm21.094-54.01c3.379 8.45 6.758 17.73 10.127 26.16-.84 0-5.908 2.54-6.748 3.38-3.379-8.44-7.598-17.72-10.967-26.16.84-.84 5.898-3.38 7.588-3.38Zm1878.613 806.82c4.22-1.69 9.29-2.54 16.04-4.23-7.6 5.91-13.51 10.13-18.57 15.19-.85-.85-1.69-1.69-2.53-1.69 1.68-3.37 3.37-5.9 5.06-9.28v.01ZM955.723 483.096c5.058-3.379 9.277-5.909 14.346-9.287l1.689 1.689c-5.068 6.758-9.287 13.506-15.195 21.943-.84-5.908-.84-9.287-1.69-13.505-.84 0 0 0 .85-.84Zm247.267 427.031c7.6-3.369 15.19-6.748 24.48-10.967-.85 5.059-.85 8.438-.85 11.817-2.53-.85-5.91-1.69-8.44-1.69-5.05.84-14.34 7.598-18.56 8.438-.85 0 3.37-6.748 3.37-7.598Zm632.96 715.663c1.69 8.44 17.72 12.66 1.69 21.09 2.53 1.69 5.06 2.54 7.59 4.23 0 .84-.84 2.53-1.68 3.37-1.69.85-5.07 2.54-6.76 1.69-.84 0-2.53-3.38-2.53-5.06 0-7.59.85-15.19 1.69-25.32Z" fill="#DD3735"/></svg>