<svg width="56" height="32" fill="none" xmlns="http://www.w3.org/2000/svg"><g clip-path="url(#a)"><path d="M4.381 12a.39.39 0 0 1-.288-.112.39.39 0 0 1-.112-.288V1.2a.39.39 0 0 1 .112-.288A.39.39 0 0 1 4.381.8h4.24c1.333 0 2.384.31 3.152.928.768.608 1.152 1.488 1.152 2.64 0 .779-.187 1.43-.56 1.952a3.357 3.357 0 0 1-1.504 1.168l2.256 4a.398.398 0 0 1 .048.176.363.363 0 0 1-.096.24.326.326 0 0 1-.24.096h-1.776c-.192 0-.336-.048-.432-.144a1.36 1.36 0 0 1-.208-.288L8.461 7.904H6.525V11.6a.39.39 0 0 1-.112.288.39.39 0 0 1-.288.112H4.381Zm2.144-6.128h2.048c.587 0 1.019-.133 1.296-.4.288-.267.432-.64.432-1.12 0-.48-.139-.859-.416-1.136-.277-.277-.715-.416-1.312-.416H6.525v3.072Zm11.789 6.288c-1.227 0-2.203-.341-2.928-1.024-.715-.683-1.093-1.675-1.136-2.976v-.688c.043-.821.23-1.525.56-2.112A3.29 3.29 0 0 1 16.202 4c.597-.32 1.296-.48 2.096-.48.896 0 1.643.187 2.24.56a3.377 3.377 0 0 1 1.36 1.504c.31.63.464 1.355.464 2.176v.368a.349.349 0 0 1-.128.272.37.37 0 0 1-.272.112H16.73v.128a2.7 2.7 0 0 0 .192.944c.128.277.304.501.528.672.235.17.512.256.832.256.267 0 .485-.037.656-.112.17-.075.31-.165.416-.272.117-.107.203-.197.256-.272.096-.107.17-.17.224-.192a.669.669 0 0 1 .288-.048h1.664c.106 0 .192.032.256.096.074.053.106.133.096.24-.01.17-.102.384-.272.64-.16.245-.4.49-.72.736-.32.235-.72.432-1.2.592-.47.16-1.014.24-1.632.24ZM16.73 7.056h3.136v-.032c0-.384-.064-.715-.192-.992a1.453 1.453 0 0 0-.528-.672 1.47 1.47 0 0 0-.848-.24c-.33 0-.613.08-.848.24-.235.16-.416.384-.544.672a2.542 2.542 0 0 0-.176.992v.032Zm10.32 5.104a3.725 3.725 0 0 1-1.425-.256 2.934 2.934 0 0 1-1.056-.768 3.536 3.536 0 0 1-.656-1.2c-.15-.47-.24-.987-.272-1.552a9.897 9.897 0 0 1 0-1.088 5.594 5.594 0 0 1 .256-1.52c.16-.459.379-.853.656-1.184.288-.341.64-.603 1.056-.784a3.472 3.472 0 0 1 1.44-.288c.555 0 1.03.096 1.424.288.395.181.72.421.976.72V1.04a.39.39 0 0 1 .112-.288.39.39 0 0 1 .288-.112h1.648a.37.37 0 0 1 .272.112.39.39 0 0 1 .112.288V11.6a.39.39 0 0 1-.112.288.37.37 0 0 1-.272.112h-1.536a.37.37 0 0 1-.272-.112.39.39 0 0 1-.112-.288v-.544a3.28 3.28 0 0 1-1.008.8c-.405.203-.912.304-1.52.304Zm.735-1.92c.395 0 .71-.09.944-.272.246-.181.422-.41.528-.688a2.49 2.49 0 0 0 .192-.896 5.786 5.786 0 0 0 0-1.2 2.159 2.159 0 0 0-.192-.832 1.544 1.544 0 0 0-.544-.656c-.234-.17-.544-.256-.928-.256-.405 0-.725.09-.96.272-.234.17-.405.4-.512.688a3.71 3.71 0 0 0-.176.944c-.032.33-.032.661 0 .992.022.341.08.656.176.944.107.288.278.523.512.704.235.17.555.256.96.256Zm9.185 1.92c-.618 0-1.168-.139-1.648-.416a2.956 2.956 0 0 1-1.104-1.232c-.256-.544-.384-1.2-.384-1.968V4.08a.39.39 0 0 1 .112-.288.37.37 0 0 1 .272-.112h1.696a.39.39 0 0 1 .288.112.39.39 0 0 1 .112.288v4.368c0 1.195.523 1.792 1.568 1.792.502 0 .896-.155 1.184-.464.299-.32.448-.763.448-1.328V4.08a.39.39 0 0 1 .112-.288.39.39 0 0 1 .288-.112h1.696a.37.37 0 0 1 .272.112.39.39 0 0 1 .112.288v7.52a.39.39 0 0 1-.112.288.37.37 0 0 1-.272.112h-1.568a.39.39 0 0 1-.288-.112.39.39 0 0 1-.112-.288v-.624a2.7 2.7 0 0 1-1.072.88c-.437.203-.97.304-1.6.304Zm6.686-.16a.382.382 0 0 1-.256-.096.382.382 0 0 1-.08-.368.626.626 0 0 1 .08-.144l2.704-3.664-2.48-3.44a.838.838 0 0 1-.08-.128.524.524 0 0 1-.016-.128c0-.096.032-.176.096-.24a.352.352 0 0 1 .256-.112h1.664c.128 0 .224.032.288.096a.767.767 0 0 1 .16.176l1.648 2.24 1.648-2.224c.043-.053.096-.112.16-.176.064-.075.165-.112.304-.112h1.584c.096 0 .176.037.24.112a.303.303 0 0 1 .112.24.524.524 0 0 1-.016.128.283.283 0 0 1-.08.128l-2.528 3.456 2.736 3.648a.361.361 0 0 1 .064.128.284.284 0 0 1 .032.128.352.352 0 0 1-.112.256.326.326 0 0 1-.24.096H49.8a.414.414 0 0 1-.272-.08 2.193 2.193 0 0 1-.16-.176l-1.776-2.368-1.808 2.368c-.032.043-.08.096-.144.16-.064.064-.16.096-.288.096h-1.696ZM1.076 31a.39.39 0 0 1-.288-.112.39.39 0 0 1-.112-.288V20.2a.39.39 0 0 1 .112-.288.39.39 0 0 1 .288-.112h4.368c.864 0 1.61.133 2.24.4.64.267 1.136.672 1.488 1.216.363.533.544 1.2.544 2 0 .81-.181 1.483-.544 2.016-.352.523-.848.912-1.488 1.168-.63.256-1.376.384-2.24.384H3.3V30.6a.39.39 0 0 1-.112.288A.39.39 0 0 1 2.9 31H1.076Zm2.176-6h2.112c.544 0 .966-.133 1.264-.4.31-.267.464-.667.464-1.2 0-.47-.138-.853-.416-1.152-.266-.299-.704-.448-1.312-.448H3.252V25Zm11.538 6.16c-1.226 0-2.202-.341-2.928-1.024-.714-.683-1.093-1.675-1.136-2.976v-.688c.043-.821.23-1.525.56-2.112A3.3 3.3 0 0 1 12.678 23c.598-.32 1.296-.48 2.096-.48.896 0 1.643.187 2.24.56a3.377 3.377 0 0 1 1.36 1.504c.31.63.464 1.355.464 2.176v.368a.349.349 0 0 1-.128.272.37.37 0 0 1-.272.112h-5.232v.128c.011.341.075.656.192.944.128.277.304.501.528.672.235.17.512.256.832.256.267 0 .486-.037.656-.112.171-.075.31-.165.416-.272.118-.107.203-.197.256-.272a.762.762 0 0 1 .224-.192.669.669 0 0 1 .288-.048h1.664c.107 0 .192.032.256.096.075.053.107.133.096.24-.01.17-.1.384-.272.64-.16.245-.4.49-.72.736-.32.235-.72.432-1.2.592-.469.16-1.013.24-1.632.24Zm-1.584-5.104h3.136v-.032c0-.384-.064-.715-.192-.992a1.452 1.452 0 0 0-.528-.672 1.469 1.469 0 0 0-.848-.24c-.33 0-.613.08-.848.24-.234.16-.416.384-.544.672a2.538 2.538 0 0 0-.176.992v.032ZM20.822 31a.37.37 0 0 1-.272-.112.39.39 0 0 1-.112-.288v-7.52a.37.37 0 0 1 .112-.272.349.349 0 0 1 .272-.128h1.568a.35.35 0 0 1 .272.128.349.349 0 0 1 .128.272v.64a2.75 2.75 0 0 1 .976-.768c.395-.181.848-.272 1.36-.272h.688a.37.37 0 0 1 .272.112.39.39 0 0 1 .112.288v1.376a.39.39 0 0 1-.112.288.37.37 0 0 1-.272.112h-1.408c-.47 0-.837.133-1.104.4-.267.256-.4.624-.4 1.104v4.24a.39.39 0 0 1-.112.288.39.39 0 0 1-.288.112h-1.68Zm9.849.16c-.661 0-1.232-.075-1.712-.224-.47-.16-.853-.352-1.152-.576a2.963 2.963 0 0 1-.656-.672c-.139-.235-.213-.432-.224-.592a.323.323 0 0 1 .112-.288.39.39 0 0 1 .256-.112h1.552c.032 0 .064.005.096.016.032.01.064.037.096.08.139.096.283.208.432.336.15.117.32.219.512.304.203.085.453.128.752.128.352 0 .65-.07.896-.208.245-.15.368-.357.368-.624a.683.683 0 0 0-.176-.48c-.107-.128-.315-.245-.624-.352a12.3 12.3 0 0 0-1.376-.352c-.576-.128-1.067-.299-1.472-.512-.405-.213-.71-.48-.912-.8-.203-.33-.304-.725-.304-1.184 0-.416.128-.816.384-1.2.267-.384.656-.699 1.168-.944.512-.256 1.152-.384 1.92-.384.587 0 1.099.075 1.536.224.448.139.821.32 1.12.544.299.213.523.437.672.672.16.224.245.421.256.592a.321.321 0 0 1-.096.272.352.352 0 0 1-.256.112h-1.424a.594.594 0 0 1-.144-.016.426.426 0 0 1-.112-.08 7.28 7.28 0 0 1-.4-.288 1.84 1.84 0 0 0-.464-.304c-.181-.085-.416-.128-.704-.128-.352 0-.624.08-.816.24a.712.712 0 0 0-.128.992c.096.128.293.245.592.352.299.107.752.219 1.36.336.725.128 1.301.32 1.728.576.427.256.73.555.912.896.192.33.288.688.288 1.072 0 .501-.15.95-.448 1.344-.299.384-.736.688-1.312.912-.565.213-1.264.32-2.096.32Zm5.776-.16a.37.37 0 0 1-.272-.112.39.39 0 0 1-.112-.288v-7.52a.39.39 0 0 1 .112-.288.37.37 0 0 1 .272-.112h1.6a.39.39 0 0 1 .288.112.39.39 0 0 1 .112.288v7.52a.39.39 0 0 1-.112.288.39.39 0 0 1-.288.112h-1.6Zm-.048-9.6a.37.37 0 0 1-.272-.112.39.39 0 0 1-.112-.288v-1.28a.39.39 0 0 1 .112-.288.349.349 0 0 1 .272-.128h1.68c.117 0 .213.043.288.128.085.075.128.17.128.288V21a.365.365 0 0 1-.128.288.39.39 0 0 1-.288.112h-1.68Zm7.584 9.76c-.66 0-1.232-.075-1.712-.224-.469-.16-.853-.352-1.152-.576a2.963 2.963 0 0 1-.656-.672c-.138-.235-.213-.432-.224-.592a.323.323 0 0 1 .112-.288.39.39 0 0 1 .256-.112h1.552c.032 0 .064.005.096.016.032.01.064.037.096.08.14.096.283.208.432.336.15.117.32.219.512.304.203.085.454.128.752.128.352 0 .651-.07.896-.208.246-.15.368-.357.368-.624a.683.683 0 0 0-.176-.48c-.106-.128-.314-.245-.624-.352a12.3 12.3 0 0 0-1.376-.352 5.949 5.949 0 0 1-1.472-.512c-.405-.213-.709-.48-.912-.8-.202-.33-.304-.725-.304-1.184 0-.416.128-.816.384-1.2.267-.384.656-.699 1.168-.944.512-.256 1.152-.384 1.92-.384.587 0 1.1.075 1.536.224.448.139.822.32 1.12.544.3.213.523.437.672.672.16.224.246.421.256.592a.321.321 0 0 1-.096.272.352.352 0 0 1-.256.112h-1.424a.594.594 0 0 1-.144-.016.426.426 0 0 1-.112-.08 7.28 7.28 0 0 1-.4-.288 1.84 1.84 0 0 0-.464-.304c-.18-.085-.416-.128-.704-.128-.352 0-.624.08-.816.24a.712.712 0 0 0-.128.992c.096.128.294.245.592.352.3.107.752.219 1.36.336.726.128 1.302.32 1.728.576.427.256.731.555.912.896.192.33.288.688.288 1.072 0 .501-.149.95-.448 1.344-.298.384-.736.688-1.312.912-.565.213-1.264.32-2.096.32Zm9.361-.16c-.661 0-1.227-.107-1.696-.32a2.32 2.32 0 0 1-1.072-1.024c-.235-.459-.352-1.035-.352-1.728v-3.36h-1.248a.39.39 0 0 1-.288-.112.39.39 0 0 1-.112-.288V23.08a.39.39 0 0 1 .112-.288.39.39 0 0 1 .288-.112h1.248v-2.64a.39.39 0 0 1 .112-.288.426.426 0 0 1 .288-.112h1.568a.39.39 0 0 1 .288.112.39.39 0 0 1 .112.288v2.64h2a.37.37 0 0 1 .272.112.39.39 0 0 1 .112.288v1.088a.39.39 0 0 1-.112.288.37.37 0 0 1-.272.112h-2v3.168c0 .405.07.725.208.96.15.224.405.336.768.336h1.168a.37.37 0 0 1 .272.112.37.37 0 0 1 .112.272V30.6a.39.39 0 0 1-.112.288.37.37 0 0 1-.272.112h-1.392Z" fill="#AE8BF8"/></g><defs><clipPath id="a"><path fill="#fff" d="M0 0h56v32H0z"/></clipPath></defs></svg>