<svg width="30" height="16" fill="none" xmlns="http://www.w3.org/2000/svg"><g clip-path="url(#a)"><path d="M4.496 12a.39.39 0 0 1-.288-.112.39.39 0 0 1-.112-.288V8.08L.352 1.312a.62.62 0 0 0-.032-.08.307.307 0 0 1 .08-.32A.336.336 0 0 1 .64.8h1.696c.15 0 .267.037.352.112a.728.728 0 0 1 .176.208l2.512 4.4 2.512-4.4a.728.728 0 0 1 .176-.208A.516.516 0 0 1 8.416.8h1.696c.085 0 .16.037.224.112a.288.288 0 0 1 .096.32.62.62 0 0 0-.032.08L6.656 8.08v3.52a.39.39 0 0 1-.112.288.39.39 0 0 1-.288.112h-1.76Zm9.302.16c-.618 0-1.168-.139-1.648-.416a2.956 2.956 0 0 1-1.104-1.232c-.256-.544-.384-1.2-.384-1.968V4.08a.39.39 0 0 1 .112-.288.37.37 0 0 1 .272-.112h1.696a.39.39 0 0 1 .288.112.39.39 0 0 1 .112.288v4.368c0 1.195.523 1.792 1.568 1.792.502 0 .896-.155 1.184-.464.299-.32.448-.763.448-1.328V4.08a.39.39 0 0 1 .112-.288.39.39 0 0 1 .288-.112h1.696a.37.37 0 0 1 .272.112.39.39 0 0 1 .112.288v7.52a.39.39 0 0 1-.112.288.37.37 0 0 1-.272.112H16.87a.39.39 0 0 1-.288-.112.39.39 0 0 1-.112-.288v-.624a2.7 2.7 0 0 1-1.072.88c-.437.203-.97.304-1.6.304Zm7.438 2.88a.39.39 0 0 1-.288-.112.39.39 0 0 1-.112-.288V4.08a.39.39 0 0 1 .112-.288.39.39 0 0 1 .288-.112h1.52a.39.39 0 0 1 .288.112.39.39 0 0 1 .112.288v.608c.256-.341.587-.619.992-.832.405-.224.912-.336 1.52-.336.555 0 1.035.09 1.44.272.416.17.763.421 1.04.752.288.32.507.71.656 1.168.16.459.25.976.272 1.552a10.948 10.948 0 0 1 0 1.168 4.827 4.827 0 0 1-.256 1.504c-.15.459-.368.853-.656 1.184a2.94 2.94 0 0 1-1.056.768c-.405.181-.885.272-1.44.272-.544 0-1.018-.096-1.424-.288a2.8 2.8 0 0 1-.976-.816v3.584a.39.39 0 0 1-.112.288.37.37 0 0 1-.272.112h-1.648Zm3.712-4.8c.405 0 .726-.085.96-.256.235-.181.4-.416.496-.704a3.31 3.31 0 0 0 .192-.944c.021-.33.021-.661 0-.992a3.295 3.295 0 0 0-.192-.944 1.358 1.358 0 0 0-.496-.688c-.235-.181-.555-.272-.96-.272-.395 0-.715.09-.96.272a1.52 1.52 0 0 0-.528.688 3.05 3.05 0 0 0-.192.896 10.74 10.74 0 0 0 0 1.2c.01.299.075.581.192.848.128.256.31.47.544.64.245.17.56.256.944.256Z" fill="#AE8BF8"/></g><defs><clipPath id="a"><path fill="#fff" d="M0 0h30v16H0z"/></clipPath></defs></svg>